<svg version="1.1" id="Layer_1" xmlns="http://www.w3.org/2000/svg" xmlns:xlink="http://www.w3.org/1999/xlink" x="0px" y="0px" viewBox="0 0 500 500" style="width: 140px;" xml:space="preserve" data-imageid="presentation-5-21" imageName="Presentation 5" class="illustrations_image">
<style type="text/css">
	.st0_presentation-5-21{fill:#ACF4E6;}
	.st1_presentation-5-21{fill:url(#SVGID_1_);}
	.st2_presentation-5-21{fill:url(#SVGID_00000130645639920368220930000005657552633247979409_);}
	.st3_presentation-5-21{fill:url(#SVGID_00000073704605583374099830000014826264957629746062_);}
	.st4_presentation-5-21{fill:#334C42;}
	.st5_presentation-5-21{fill:#435950;}
	.st6_presentation-5-21{fill:#9A6CFF;}
	.st7_presentation-5-21{fill:#FFE427;}
	.st8_presentation-5-21{fill:#68E1FD;}
	.st9_presentation-5-21{fill:#FCBF81;}
	.st10_presentation-5-21{fill:#22B68E;}
	.st11_presentation-5-21{fill:#06825E;}
</style>
<g id="Base_presentation-5-21">
	<path class="st0_presentation-5-21" d="M292.9,148.6l173.2,99.8c3.4,1.9,4.6,6.2,2.7,9.5c-0.6,1.1-1.5,2-2.7,2.7L221.7,401&#10;&#9;&#9;c-5.9,3.4-13.2,3.5-19.2,0.2L34,309.4c-3.4-1.8-4.7-6.1-2.9-9.5c0.6-1.2,1.6-2.1,2.7-2.8l261.4-151.3"/>
</g>
<g id="Shadow_presentation-5-21">
	
		<linearGradient id="SVGID_1_-presentation-5-21" gradientUnits="userSpaceOnUse" x1="344.157" y1="487.3393" x2="366.907" y2="470.0393" gradientTransform="matrix(1 0 0 1 0 -197.56)">
		<stop offset="0" style="stop-color:#ACF4E6"/>
		<stop offset="1" style="stop-color:#8ECDC6"/>
	</linearGradient>
	<path class="st1_presentation-5-21" d="M372,269.3l-56.3,20.1c0,0-5,9.5,23.3,26.3l45.1-41.6"/>
	
		<linearGradient id="SVGID_00000080911764768245176680000007107725762803129988_-presentation-5-21" gradientUnits="userSpaceOnUse" x1="173.8715" y1="565.5525" x2="227.1815" y2="534.3325" gradientTransform="matrix(1 0 0 1 0 -197.56)">
		<stop offset="0" style="stop-color:#ACF4E6"/>
		<stop offset="1" style="stop-color:#8ECDC6"/>
	</linearGradient>
	<polyline style="fill:url(#SVGID_00000080911764768245176680000007107725762803129988_);" points="247,310.4 144.9,365 &#10;&#9;&#9;180.4,384.2 277.5,323.4 &#9;"/>
	
		<linearGradient id="SVGID_00000145772297440703223090000001934250161776101790_-presentation-5-21" gradientUnits="userSpaceOnUse" x1="143.5196" y1="526.6495" x2="189.9696" y2="491.3195" gradientTransform="matrix(1 0 0 1 0 -197.56)">
		<stop offset="0" style="stop-color:#ACF4E6"/>
		<stop offset="1" style="stop-color:#8ECDC6"/>
	</linearGradient>
	<path style="fill:url(#SVGID_00000145772297440703223090000001934250161776101790_);" d="M190,279.9L83.4,338.1&#10;&#9;&#9;c0,0,18.5,2,46.9,18.8l97.9-55.5"/>
</g>
<g id="Mouse_presentation-5-21">
	<path class="st4_presentation-5-21" d="M178.1,350.5c1.6,1.6,3.5,2.7,5.7,3.4c3.7,1.3,16,6.1,16,6.1s8.7,3.6,10.9,3s-25.6-12.6-25.6-12.6L178.1,350.5&#10;&#9;&#9;z"/>
	<path class="st4_presentation-5-21" d="M206.3,361.9c0.7,0.3,1.4,0.6,2.2,0.9c2.6,0.7,5.3,0.4,7.7-0.9c5.6-2.8,6.2-6.4,4.9-9.4s-15.8-9.6-22.1-10.6&#10;&#9;&#9;c-3.9-0.6-7.9-0.2-11.7,1c-2,0.7-3.9,1.6-5.7,2.7c-1.2,0.8-4.8,3-3.6,4.8c0.3,0.4,0.7,0.6,1.2,0.7c4.8,1.3,9.5,2.8,14.1,4.6&#10;&#9;&#9;c2.6,1,5.3,2.2,7.8,3.4C202.9,360,204.6,361.1,206.3,361.9z"/>
</g>
<g id="Keyboard_presentation-5-21">
	<path class="st4_presentation-5-21" d="M207.4,333.4v2.8c0,0,0,0.4,1.1,0.9s26.4,10.6,26.4,10.6c0.7,0.3,1.5,0.3,2.2,0c1.1-0.6,101.8-58.8,101.8-58.8&#10;&#9;&#9;s0.5-0.3,0.1-1.5l-1.6-0.6"/>
	<path class="st4_presentation-5-21" d="M208.1,332.7c0,0-1,0.5-0.6,1s9.7,4.8,9.7,4.8l17.5,7.9c0.6,0.4,1.4,0.5,2.1,0.2&#10;&#9;&#9;c1.1-0.4,101.8-58.5,101.8-58.5c0.2-0.2,0.3-0.5,0.2-0.8c0,0,0-0.2-0.5-0.5S312,274.3,312,274.3c-0.6-0.3-1.2-0.3-1.8-0.1&#10;&#9;&#9;C309.5,274.6,208.1,332.7,208.1,332.7z"/>
</g>
<g id="Monitor_presentation-5-21">
	<path class="st4_presentation-5-21" d="M230.6,257.4l39.4,14.8c0,0,1.6,1.1,0.6,3.6c-0.6,1.5-3.9,3.6-3.9,3.6l-34.1,19.8c-1.9,0.8-3.8,1.4-5.9,1.6&#10;&#9;&#9;c-2.7,0.2-7.3-2-7.3-2l-31.7-18.4L230.6,257.4z"/>
	<path class="st5_presentation-5-21" d="M231.1,255.6l37.7,15.4c0,0,2.6,1.5,2,3.4c-0.8,1.5-1.9,2.7-3.4,3.4l-34.2,19.6c-1.9,0.8-3.8,1.4-5.9,1.6&#10;&#9;&#9;c-2.7,0.2-7.3-2-7.3-2L190,279.9L231.1,255.6z"/>
	<path class="st4_presentation-5-21" d="M141.9,307.4c-1.5,0.6-3.2,0.2-4.2-1c0,0-0.7-0.1-0.7-3.4V152.7c0.1-2.6,1.3-5.1,3.3-6.8&#10;&#9;&#9;c3.7-2.6,7.5-4.9,11.5-7l167.1-96.5l1.9-1c1.3-0.7,2.9-0.2,3.7,1c0.5,0.8,0.8,1.8,0.8,2.7c0.1,1.6,0,16.8,0,16.8v135.3&#10;&#9;&#9;c0,2.6-1.1,5.1-3,6.9L141.9,307.4z"/>
	<path class="st6_presentation-5-21" d="M140,284.7V155c0-4.3,0.6-6.7,4-8.5L320.2,44.4c1-0.8,2.5-0.5,3.3,0.5c0.3,0.4,0.5,0.9,0.5,1.4l-0.4,133.4&#10;&#9;&#9;L140,284.7z"/>
	<ellipse transform="matrix(0.3989 -0.917 0.917 0.3989 114.699 326.0557)" class="st7_presentation-5-21" cx="306.1" cy="75.5" rx="7.7" ry="6.7"/>
	<polygon class="st7_presentation-5-21" points="172.4,193.6 172.4,242.2 182.5,236.4 182.6,187.7 &#9;"/>
	<polygon class="st7_presentation-5-21" points="189.4,175.6 189.2,232.8 199.8,226.7 199.8,169.7 &#9;"/>
	<polygon class="st7_presentation-5-21" points="206.4,160.1 206.3,223.3 215.7,217.8 215.7,154.5 &#9;"/>
	<ellipse transform="matrix(0.3989 -0.917 0.917 0.3989 96.2451 338.1573)" class="st7_presentation-5-21" cx="306.1" cy="95.7" rx="7.7" ry="6.7"/>
	<ellipse transform="matrix(0.5562 -0.8311 0.8311 0.5562 40.1654 305.4471)" class="st7_presentation-5-21" cx="306" cy="115.1" rx="7.7" ry="6.7"/>
	<path class="st8_presentation-5-21 targetColor" d="M254.2,183.7c-2.4,0-4.7-0.4-7-1.1c-8-2.6-14.1-9.3-17-18.8c-2.7-9.6-2.4-19.7,0.7-29.1&#10;&#9;&#9;c6.9-21.8,24.9-34.9,40.9-29.8s23.2,26.1,16.2,47.8l0,0c-2.9,9.5-8.5,18-16.2,24.2C266.9,181.2,260.7,183.5,254.2,183.7z&#10;&#9;&#9; M264.9,115.5c-8.8,0-18.7,9.5-22.9,22.8c-2.5,7.2-2.7,14.9-0.7,22.3c1.8,5.8,5.1,9.8,9.4,11.1s9.3,0.1,14.1-3.6&#10;&#9;&#9;c5.9-4.8,10.1-11.3,12.3-18.6c4.8-15.1,0.8-30.4-8.7-33.4C267.3,115.6,266.1,115.4,264.9,115.5z" style="fill: rgb(104, 225, 253);"/>
	<path class="st7_presentation-5-21" d="M173.3,248.2L173.3,248.2c0,1.3,1,2.3,2.3,2.3c0,0,0,0,0,0c0.4,0,0.8-0.1,1.1-0.3l43.4-24.8&#10;&#9;&#9;c0.7-0.4,1.2-1.2,1.2-2l0,0c0-1.3-1.1-2.3-2.4-2.3c-0.4,0-0.8,0.1-1.1,0.3l-43.4,24.7C173.8,246.6,173.3,247.4,173.3,248.2z"/>
	<path class="st7_presentation-5-21" d="M163.9,153.2v17.5c0,1.4,1.1,2.5,2.5,2.5h0c0.4,0,0.9-0.1,1.2-0.3l47.7-27.6c0.8-0.4,1.2-1.2,1.2-2.1v-17.5&#10;&#9;&#9;c0-1.4-1.1-2.5-2.5-2.5l0,0c-0.4,0-0.9,0.1-1.2,0.3l-47.7,27.5C164.3,151.5,163.9,152.3,163.9,153.2z"/>
	
		<ellipse transform="matrix(0.3025 -0.9531 0.9531 0.3025 -28.5261 276.3253)" class="st8_presentation-5-21 targetColor" cx="174.5" cy="157.7" rx="7.8" ry="6.2" style="fill: rgb(104, 225, 253);"/>
	<path class="st6_presentation-5-21" d="M183.1,148.5l27.9-15.7c0.5-0.3,0.6-0.9,0.4-1.4c-0.3-0.5-0.9-0.6-1.4-0.4l-27.9,15.7&#10;&#9;&#9;c-0.5,0.3-0.6,0.9-0.4,1.4C182,148.7,182.6,148.8,183.1,148.5L183.1,148.5z"/>
	<path class="st6_presentation-5-21" d="M184.1,155.4l17.3-9.7c0.4-0.3,0.5-1,0.2-1.4c-0.3-0.4-0.8-0.5-1.2-0.3l0,0l-17.3,9.7c-0.4,0.3-0.5,1-0.2,1.4&#10;&#9;&#9;C183.3,155.4,183.7,155.5,184.1,155.4L184.1,155.4z"/>
</g>
<g id="Character_presentation-5-21">
	<polygon class="st7_presentation-5-21" points="275.7,161.4 287.2,154 280.3,134.3 268.6,141.7 274.4,156.9 &#9;"/>
	<path class="st9_presentation-5-21" d="M277.6,163.1l-0.7-3.3c0.9-2.2,0.3-4.7-1.5-6.3c0.5-1.4,0.8-2.8,0.9-4.3c0-0.2-0.1-0.4-0.2-0.6&#10;&#9;&#9;c-0.2-0.3-0.7-0.4-1-0.2c-0.1,0.1-0.2,0.2-0.3,0.4c-0.3,1-0.6,2.1-0.9,3.1c-0.3,0.8-0.5,1.6-0.7,2.4c-0.2-0.7-0.4-1.3-0.6-2l0,0&#10;&#9;&#9;c0-0.1,0-0.2-0.1-0.2l-0.2-0.6c-0.3-1.3-0.7-2.5-1.1-3.7v-0.1c0-0.1-0.1-0.2-0.2-0.3c0,3.7,0.4,7.4,1.1,11.1c0.5,1.5,1.1,3,1.8,4.4&#10;&#9;&#9;c0.1,0.1,0.1,0.2,0.2,0.2c0.1,0.4,0.3,0.8,0.4,1.2v0.1l0.1,0.4c0.2,0.4,0.6,0.5,0.9,0.4c0,0,0,0,0.1,0c0.2-0.1,0.3-0.2,0.4-0.4&#10;&#9;&#9;c0.5,0.3,1.3,0,1.1-0.6c0.4-0.1,0.6-0.4,0.6-0.8C277.7,163.3,277.7,163.2,277.6,163.1z"/>
	<path class="st9_presentation-5-21" d="M295.5,144.3c0.4-0.2-4.5-4.1-5-4.5c-2.5-2.2-4.8-4.5-7-7c-0.1-0.1-0.2-0.1-0.3-0.2c-0.4-0.5-0.9-0.9-1.3-1.3&#10;&#9;&#9;c-0.3-0.3-0.8-0.2-1.1,0.1c-0.2,0.2-0.2,0.4-0.2,0.7c0.4,1.7,1.2,3.2,2.5,4.4c-0.3,0.5-0.5,1-0.7,1.5c0.1,0,0.2,0.2,0.2,0.3&#10;&#9;&#9;c0,0.3-0.1,0.5-0.2,0.8c0,0.2-0.1,0.3-0.2,0.5c0,0.1-0.1,0.1-0.2,0.1c0.1,0.7,0.4,1.3,1,1.8c-0.1,0.7,0,1.5,0.4,2.1l0.1,0.1h0.1&#10;&#9;&#9;c1,0.3,2,0.6,3,1c0.1,0.1,0.2,0.3,0.1,0.5c0,0-0.1,0.1-0.1,0.1c0.8,0.1,1.5,0.2,2.3,0.3c0.2,0,0.3,0,0.5-0.2l0.4,0.2&#10;&#9;&#9;c0.4,0.2,0.8,0.1,1-0.3c0.1-0.1,0.1-0.2,0.1-0.3c0-0.1,0-0.2,0-0.3l0.3,0.2c0,0.5,0.4,0.8,0.8,0.8c0,0,0,0,0,0c0.1,0,0.1,0,0.2,0&#10;&#9;&#9;c0.4-0.1,0.8-0.5,0.7-0.9c0-0.1,0-0.2-0.1-0.3l0.8,0.7c0.1,0.1,0.2,0.1,0.3,0c0,0,0.1-0.1,0.1-0.2c0,0,0-0.1,0-0.1&#10;&#9;&#9;c0.4,0.4,0.8,0.9,1.2,1.3C300.4,150.3,295.6,144.4,295.5,144.3z M292.3,145c-0.2,0.1-0.5-0.1-0.6-0.3c0.2,0,0.4-0.1,0.6-0.3l0,0&#10;&#9;&#9;c0.1,0,0.2,0,0.3-0.1l0,0l0,0c0.1,0.2,0,0.5-0.2,0.6L292.3,145L292.3,145z"/>
	<path class="st9_presentation-5-21" d="M294.5,144.4c-0.9-0.4-1.8-0.9-2.5-1.6c-0.6-0.6-1.6-0.6-2.2,0c0,0,0,0,0,0l0,0c-0.2-0.4-0.3-0.8-0.4-1.2&#10;&#9;&#9;c-0.2-0.9-1.1-1.4-2-1.1c-0.9,0.2-1.4,1.1-1.1,2l0,0c0.4,1.6,1.2,3,2.5,4.1c1.3,0.9,2.7,1.6,4.3,2c0.9,0.2,1.8-0.3,2-1.2&#10;&#9;&#9;c0-0.2,0-0.4,0-0.6l0.1-0.1C295.4,145.8,295.2,144.9,294.5,144.4z"/>
	<path class="st4_presentation-5-21" d="M289.9,146.6c-2.4-0.7-4.1-2.9-4.1-5.4c0,0,0-0.1,0-0.1l0,0l-1.7-1.6c-0.2-0.2-0.5-0.5-0.7-0.7&#10;&#9;&#9;s-1.2-2.3,0.4-1.9c0.5,0.1,1.3,1.1,1.8,1.4s1.1,0.9,1.6,1.4c0.2,0.2,0.5-0.1,0.3-0.3c-1-0.9-2-1.8-3.1-2.6c-0.5-0.4-1-0.8-1.6-0.3&#10;&#9;&#9;c-0.4,0.4-0.6,1-0.3,1.5c-0.1,0.5-0.5,1-0.5,1.6c0.2,0.6,0.5,1,0.9,1.4l0.2,0.2c0,0,0,0.1,0,0.1c0,0.7-0.3,1.4,0.3,1.9&#10;&#9;&#9;c0.3,0.2,0.6,0.3,0.9,0.4l1.5,0.5c0.1,0,0.2,0,0.2-0.1l0,0c0.8,1.4,2.2,2.5,3.7,2.9C290,147.1,290.1,146.7,289.9,146.6z&#10;&#9;&#9; M282.9,140.4c-0.4-0.3-0.5-0.9-0.3-1.3c0-0.2,0.1-0.3,0.2-0.5c0.8,1,1.7,1.9,2.6,2.6v0.1c-0.1,0-0.1,0-0.2,0&#10;&#9;&#9;C284.5,142.1,283.3,140.9,282.9,140.4L282.9,140.4z M284.2,143.2c-0.4-0.1-0.6-0.4-0.7-0.7c0-0.3,0-0.6,0-0.9&#10;&#9;&#9;c0.6,0.4,1.3,0.7,1.8,0.2c0.1,0.7,0.3,1.4,0.6,2C285.4,143.6,284.8,143.4,284.2,143.2L284.2,143.2z"/>
	<path class="st10_presentation-5-21" d="M312.7,156.9c-0.6-1-20.8-15.1-21.9-16.8c-3,3.4-3.7,8.2-1.6,12.3c0,0,10.9,14.6,16.9,16.2"/>
	<path class="st10_presentation-5-21" d="M271.2,166.6c0,0,3.1-5.6,9-7.1c0,0,6,13.8,10.3,12.7s4.8-13,14.7-15.9s2.8,31.7-10.1,31.9&#10;&#9;&#9;S274.7,178.6,271.2,166.6z"/>
	<path class="st10_presentation-5-21" d="M309.4,289.2l-4.6,2.1c-0.2,0.9-0.9,1.6-1.8,1.9c-0.1,0.2-0.4,0.4-0.6,0.4c-1.9,0.3-3.9,0.1-5.7-0.5&#10;&#9;&#9;c-2.3-0.5-11.5-3.2-8.5,3c1.7,1,3.6,1.8,5.3,2.7c1,0.5,2,1,3,1.4c0.5,0.3,1.1,0.5,1.7,0.6c1.3,0.1,4.3-1.1,4.4-0.8s0.6,2.7,0.6,2.7&#10;&#9;&#9;s8.3,2.4,8.2-3C311.4,299.1,309.4,289.2,309.4,289.2z"/>
	<path class="st10_presentation-5-21" d="M313.6,281.5c0,0-8.3-2.9-10.2-2.9s-5.1,0.9-2,4.2c0,0,8.8,4.8,10,4.9s3.8-1,3.8-0.7s0.5,2.4,0.5,2.4&#10;&#9;&#9;s7.2,2.1,7.2-2.6c0-0.6-1.8-9.2-1.8-9.2"/>
	<path class="st7_presentation-5-21" d="M312.1,240.2c-0.3-16-1-32.1,1.1-48c-0.2-4.1,2.6-1.7,2.4-3.3c-2.5-13-20.3,4.1-20.3,4.1&#10;&#9;&#9;c-0.7,0.7-0.5,4.7-0.6,5.6c-0.5,5.1-0.8,10.2-1,15.3c-1.1,25.9,2.1,51.2,5.5,76.8c4.4,3.8,7.1,4.8,13.5,1.6&#10;&#9;&#9;c0-16.9-0.1-33.8-0.4-50.7C312.2,241.2,312.2,240.7,312.1,240.2z"/>
	<path class="st7_presentation-5-21" d="M322.8,268.4c-0.4-6.4-1.2-12.7-1.7-19c-0.8-9.6-0.6-19.3-0.7-29c-1.2-12-2.4-27.2-2.4-27.2L308,196&#10;&#9;&#9;c0,0-6.4,83.5,3.5,87.1s11.4-2.9,11.4-2.9S322.8,275.2,322.8,268.4z"/>
	<path class="st10_presentation-5-21" d="M318.7,192.6c-0.1-1.7-0.3-3.4-0.6-5c-0.7-5.3-0.7-10.7,0-16c0.6-5.1,0.6-10.4-2.5-14.8&#10;&#9;&#9;c-4.6-2.6-10.9-0.3-14.8,2.6c-5.2,3.8-6.9,29.9-6.9,37.9c0,1.1,6.9,1.7,7.7,1.8c3.6,0.3,7.2,0.1,10.7-0.8c2.5-0.7,5.6-1.9,6.3-4.7&#10;&#9;&#9;C318.6,193.3,318.7,193,318.7,192.6z"/>
	<path class="st4_presentation-5-21" d="M312.3,200.1c-0.2-0.3-0.7-0.4-1-0.2c-0.2,0.1-0.3,0.4-0.3,0.6c4.7,14.4-3.1,29.3-1.6,44&#10;&#9;&#9;c0.8,7.7,2.2,15.4,2.6,23.2c0.5,8.3,0.4,16.6-0.2,24.8c-0.1,0.9,1.3,0.8,1.4-0.1c0.6-8.3,0.7-16.6,0.3-24.8&#10;&#9;&#9;c-0.5-8.2-2.1-16.3-2.7-24.4C309.5,228.8,316.9,214.4,312.3,200.1z"/>
	<path class="st11_presentation-5-21" d="M303.2,177.6c-0.5,5.1-4,9.4-9,10.7c0,0.5-0.2,3.5-0.2,4c5.8-1.3,10-8.6,10.6-14.7&#10;&#9;&#9;C304.7,176.7,303.3,176.7,303.2,177.6z"/>
	<path class="st9_presentation-5-21" d="M306.7,142.1c-0.4,0.1-4.4,8.3-3.2,13.4s10,0.3,12.3-3.5S314.9,140.3,306.7,142.1z"/>
	<path class="st4_presentation-5-21" d="M306.7,143.3c-0.1,1.6,0.8,3.1,2.3,3.7c2.4,1,4.4,1.7,4.2,2.8s-4.4-0.3-4.5,2.2c-0.1,1.7,0.1,3.4,0.5,5.1&#10;&#9;&#9;c0.2,1.3,7.6-2.3,10.2-8.7s-3.2-8.4-3.5-8.5c-0.8-1.3-2.1-2.3-3.6-2.6c-2.9-0.8-3.8,0.3-3.8,0.3c-1.3-0.9-3.1-0.8-4.3,0.3&#10;&#9;&#9;c-2,1.5-2.4,4.3-0.9,6.3c0.4,0.6,1,1,1.6,1.4L306.7,143.3z"/>
</g>
<g id="Plant_presentation-5-21">
	<path class="st10_presentation-5-21" d="M356.2,207.4c1.9-0.1,3.7,0.3,5.4,1.1c1.7,1,3.1,2.5,3.8,4.3c0.8,1.8,1.2,4.2,2.9,5.3&#10;&#9;&#9;c0.7,0.4,1.3,0.9,1.7,1.5c0.9,1.2,1,2.8,0.5,4.1c-0.8,1.5-4,2.5-5.4,2.2"/>
	<path class="st11_presentation-5-21" d="M354.8,207.6c-4.4,0.4-8.1,3.6-9.2,7.9c-0.5,2.1-0.6,4.4-0.1,6.5c0.4,1.7,1.4,4.7,3.5,4.8&#10;&#9;&#9;c2.8,0.2,3.8-2.5,4.6-4.7s1.8-4.6,4.1-5.4c2.3-0.9,4.9-0.3,6.6,1.5L354.8,207.6z"/>
	<path class="st10_presentation-5-21" d="M367.8,219.2c-1.7-2.2-3.1-4.6-4.8-6.9c-0.9-1.5-2.1-2.8-3.3-4c-4-1.9-8.9-0.2-11.9,3.2&#10;&#9;&#9;c0.4,0.1,1,0.1,1.3,0.2c1.8,0.7,3.3,1.8,4.5,3.2c1.8,1.9,3.1,4.3,4.7,6.4c2.5,3.3,5.8,6.1,10.1,4.1&#10;&#9;&#9;C371.2,224.1,369,220.7,367.8,219.2z"/>
	<path class="st11_presentation-5-21" d="M381.8,190.6c0,0,8.9-0.7,8.7,13.4s-13.5,4.8-10.6-3.7"/>
	<path class="st10_presentation-5-21" d="M380.5,204.4c-0.1-4.3,4.7-7.4,8.8-7.9c-0.9-3.7-4.2-6.3-8.1-6.3c-6.1,0.2-10.6,6.4-11.7,13.6&#10;&#9;&#9;c-0.5,4.5,1.2,8.9,4.5,11.9l2.9,2.5C382.3,216.2,380.3,208.3,380.5,204.4z"/>
	<path class="st11_presentation-5-21" d="M404.7,214.5c-0.1-2.7-0.8-5.3-2.1-7.6c-1.1-2.3-3.3-4-5.8-4.5l-5,9.6c0,0,7.5-13.1,4.4-3s7,21.3,8.4,6.3&#10;&#9;&#9;C404.7,215.1,404.7,214.8,404.7,214.5z"/>
	<path class="st8_presentation-5-21 targetColor" d="M369.3,239.6c0,0-6.7,4.4-4.8,14.5c0.7,3.5,1.7,7,3,10.3c1.3,3.3,2.2,7.6,5.6,9.5c3.4,1.9,7.6,1.9,11.1,0.1&#10;&#9;&#9;c2.9-1.8,3.9-5.7,5-8.7c1.3-3.7,2.1-7.4,2.6-11.3C394.8,229.5,369.3,239.6,369.3,239.6z" style="fill: rgb(104, 225, 253);"/>
	<ellipse class="st4_presentation-5-21" cx="378.3" cy="241.1" rx="9.8" ry="3.5"/>
	<path class="st11_presentation-5-21" d="M379.1,222.3c-1.3-3.3-4-6-4.7-9.6c-1-4.9,0.9-9.9,5-12.8c0.7-0.5,0-1.8-0.7-1.2c-6.2,4.5-7.5,12.3-3.8,18.9&#10;&#9;&#9;c1.3,2,2.4,4.1,3.3,6.3c0.9,2.9-0.1,5.1-1.5,7.3c0.1-2.2-0.7-4.3-2.2-5.9c-1.6-1.5-4-1.8-6-2.4c-3.9-1.3-7.3-3.5-7.9-7.9&#10;&#9;&#9;c-0.1-0.9-1.5-0.5-1.4,0.4c0.6,3.4,2.8,6.3,6,7.7c1.9,0.8,3.8,1.5,5.8,2c1.7,0.7,3.1,2,3.8,3.7c0.9,2.1,0.3,3.6-0.2,5.6&#10;&#9;&#9;c-0.7,2.6-1.8,5,0.1,7.5c0.5,0.7,1.8,0,1.2-0.7c-2.9-4,1.8-7.9,3.3-11.4C380.3,227.3,380.2,224.6,379.1,222.3z"/>
	<path class="st11_presentation-5-21" d="M397.1,213.4c-6.2-1.1-10.4,3.7-10,9.7c0.1,1.5,0.4,3,0.8,4.4c0.5,1.2,0.8,2.5,0.8,3.8&#10;&#9;&#9;c-0.4,1.9-1.7,3.4-3.5,4.1c-2.6,1-4.5,3.1-5.2,5.7c-0.1,0.4,0.2,0.8,0.6,0.8c0,0,0,0,0,0c0.3,0,0.6-0.1,0.8-0.4&#10;&#9;&#9;c1.4-5.3,8.7-4.5,8.8-10.2c0-2.8-1.5-5.4-1.6-8.3c-0.3-4.9,2.9-9.2,8.2-8.3C397.6,215,398,213.6,397.1,213.4z"/>
	<path class="st10_presentation-5-21" d="M402.6,206.9c-2.4-4.4-6.7-5.4-11-4.1c-0.6,0.2-1.2,0.5-1.7,0.8c-10.7,7.9-3.1,25.9-1.5,25.7&#10;&#9;&#9;c5.5-0.4,4.9-3.7,6.7-12.6c0.6-4.2,4.3-7.3,8.5-7.2C403.4,208.6,403.1,207.8,402.6,206.9z"/>
	<path class="st11_presentation-5-21" d="M400.3,203.9c-3.6-0.6-7.2,1.1-9.1,4.3c-4,6.6-3,14.2-2.5,21.4c0.1,0.9,1.5,0.9,1.5,0&#10;&#9;&#9;c-0.4-5.3-1.1-10.4,0.3-15.5c0.7-2.5,1.5-5.3,3.5-7.1c2.2-2,5.4-2.4,8.1-1.1l-0.5-0.7C401.1,204.8,400.7,204.4,400.3,203.9z"/>
</g>
<g id="Chat_Bubble_presentation-5-21">
	<path class="st8_presentation-5-21 targetColor" d="M83.4,154.1v40.4c0,3.1,2.5,5.7,5.7,5.7c1,0,1.9-0.2,2.7-0.7l54.4-29.6c1.8-1,3-2.9,3-5v-42.2&#10;&#9;&#9;c0-3.1-2.5-5.7-5.7-5.7c-1,0-2,0.3-2.9,0.8l-54.4,31.4C84.5,150.2,83.4,152.1,83.4,154.1z" style="fill: rgb(104, 225, 253);"/>
	<polyline class="st8_presentation-5-21 targetColor" points="149.2,154.5 149.2,181.8 137.6,171.4 &#9;" style="fill: rgb(104, 225, 253);"/>
</g>
</svg>