<?xml version="1.0" encoding="utf-8"?>
<!-- Generator: Adobe Illustrator 27.5.0, SVG Export Plug-In . SVG Version: 6.00 Build 0)  -->
<svg version="1.1" xmlns="http://www.w3.org/2000/svg" xmlns:xlink="http://www.w3.org/1999/xlink" x="0px" y="0px"
	 viewBox="0 0 799.92 799.92" style="enable-background:new 0 0 799.92 799.92;" xml:space="preserve">
<g id="Background">
	<polygon style="fill-rule:evenodd;clip-rule:evenodd;fill:#5896CC;" points="0,0 799.92,0 799.92,799.92 0,799.92 0,609.041 
		0,496.742 	"/>
</g>
<g id="Objects">
	<g>
		
			<rect x="417.755" y="105.472" transform="matrix(0.7542 -0.6567 0.6567 0.7542 -64.8156 390.3869)" style="fill-rule:evenodd;clip-rule:evenodd;fill:#013C5C;" width="142.562" height="352.593"/>
		<path style="fill-rule:evenodd;clip-rule:evenodd;fill:#5896CC;" d="M612.416,385.576l-27.023-31.037v-42.036l47.842,54.948
			L612.416,385.576L612.416,385.576z M585.393,409.104l18.398-16.019l-15.979-18.353l-2.42,2.107V409.104z M585.393,354.539
			l-10.735-12.331v-42.036l10.735,12.331V354.539L585.393,354.539z M585.393,376.84v32.265l-2.42,2.106l-8.315-9.551v-15.473
			L585.393,376.84L585.393,376.84z M574.657,418.451v-0.445l0.221,0.254L574.657,418.451L574.657,418.451z M574.657,375.096v-15.473
			l7.662,8.801L574.657,375.096z M574.657,342.207l-10.736-12.33v-42.036l10.736,12.331V342.207L574.657,342.207z M574.657,359.623
			v15.473l-10.736,9.347v-32.264l2.42-2.107L574.657,359.623L574.657,359.623z M574.657,386.188v15.473l-7.663-8.801
			L574.657,386.188L574.657,386.188z M574.657,418.006v0.445l-10.736,9.348v-22.123L574.657,418.006z M563.921,329.877
			l-10.735-12.331v-42.036l10.735,12.331V329.877L563.921,329.877z M563.921,352.179v32.264l-2.42,2.107l-8.315-9.551v-15.473
			L563.921,352.179L563.921,352.179z M563.921,405.676v22.123l-9.861,8.587l-0.874-1.004v-30.5l5.713-4.974L563.921,405.676
			L563.921,405.676z M553.185,393.79v-0.445l0.221,0.253L553.185,393.79L553.185,393.79z M553.185,350.435v-15.473l7.663,8.801
			L553.185,350.435z M553.185,317.547l-10.736-12.331V263.18l10.736,12.33V317.547L553.185,317.547z M553.185,334.962v15.473
			l-10.736,9.347v-32.264l2.42-2.107L553.185,334.962L553.185,334.962z M553.185,361.526v15.473l-7.663-8.801L553.185,361.526
			L553.185,361.526z M553.185,393.345v0.445l-10.736,9.347v-22.123L553.185,393.345L553.185,393.345z M553.185,404.882v30.5
			l-10.736-12.33v-8.822L553.185,404.882z M542.449,305.216l-10.735-12.33V250.85l10.735,12.33V305.216L542.449,305.216z
			 M542.449,327.518v32.264l-2.42,2.107l-8.315-9.551v-15.473L542.449,327.518L542.449,327.518z M542.449,381.015v22.123
			l-9.861,8.587l-0.874-1.004v-30.5l5.714-4.974L542.449,381.015L542.449,381.015z M542.449,414.229v8.822l-4.368-5.018
			L542.449,414.229L542.449,414.229z M531.714,369.13v-0.445l0.221,0.253L531.714,369.13L531.714,369.13z M531.714,325.775v-15.473
			l7.663,8.801L531.714,325.775z M531.714,292.886l-13.5-15.505v-15.473l13.155-11.454l0.345,0.396V292.886L531.714,292.886z
			 M531.714,310.302v15.473l-13.155,11.454l-0.345-0.395v-31.57l5.185-4.514L531.714,310.302L531.714,310.302z M531.714,336.865
			l-7.663,6.672l7.663,8.801V336.865L531.714,336.865z M531.714,368.685v0.445l-13.5,11.753V353.18L531.714,368.685L531.714,368.685
			z M531.714,380.221l-13.5,11.754v3.242l13.5,15.504V380.221L531.714,380.221z M518.214,250.818l7.663-6.672l-7.663-8.801V250.818z
			 M518.214,277.381l-3.985-4.578v-7.424l3.985-3.471V277.381L518.214,277.381z M518.214,235.345v15.473l-3.985,3.47v-23.521
			L518.214,235.345L518.214,235.345z M518.214,305.264v31.57l-3.985-4.578v-23.521L518.214,305.264L518.214,305.264z
			 M518.214,353.18v27.704l-3.985,3.471V352.09l1.728-1.504L518.214,353.18L518.214,353.18z M518.214,391.975v3.242l-1.604-1.844
			L518.214,391.975L518.214,391.975z M514.229,297.643v-7.425l3.677,4.223L514.229,297.643z M514.229,272.803l-3.677-4.223
			l3.677-3.201V272.803L514.229,272.803z M514.229,230.768v23.521l-7.707,6.71v-32.265l3.377-2.94L514.229,230.768L514.229,230.768z
			 M514.229,290.219v7.425l-7.707,6.711v-22.987L514.229,290.219L514.229,290.219z M514.229,308.734v23.521l-7.707-8.853v-7.959
			L514.229,308.734L514.229,308.734z M514.229,352.09v32.264l-3.112,2.709l-4.595-5.277V358.8L514.229,352.09L514.229,352.09z
			 M506.521,347.709v-7.959l3.941,4.527L506.521,347.709z M506.521,228.734v32.265l-1.463,1.273l-8.315-9.551v-15.473
			L506.521,228.734L506.521,228.734z M506.521,281.367v22.987l-9.434,8.214l-0.345-0.396v-31.569l5.184-4.514L506.521,281.367
			L506.521,281.367z M506.521,315.444v7.959l-3.941-4.527L506.521,315.444L506.521,315.444z M506.521,339.75v7.959l-9.778,8.514
			v-27.704L506.521,339.75L506.521,339.75z M506.521,358.8v22.986l-9.778-11.231v-3.242L506.521,358.8L506.521,358.8z
			 M496.743,226.158v-15.474l7.663,8.801L496.743,226.158z M496.743,210.684v15.474l-3.986,3.47v-23.522L496.743,210.684
			L496.743,210.684z M496.743,237.248v15.473l-3.986-4.578v-7.425L496.743,237.248L496.743,237.248z M496.743,280.603v31.569
			l-3.986-4.578v-23.521L496.743,280.603L496.743,280.603z M496.743,328.519v27.704l-3.986,3.47v-32.265l1.728-1.504
			L496.743,328.519L496.743,328.519z M496.743,367.314v3.242l-1.605-1.844L496.743,367.314L496.743,367.314z M492.757,272.983
			v-7.425l3.678,4.223L492.757,272.983z M492.757,206.107v23.522l-7.707,6.71v-39.084L492.757,206.107L492.757,206.107z
			 M492.757,240.718v7.425l-3.677-4.223L492.757,240.718L492.757,240.718z M492.757,265.558v7.425l-7.707,6.71v-22.987
			L492.757,265.558L492.757,265.558z M492.757,284.074v23.521l-7.707-8.852v-7.959L492.757,284.074L492.757,284.074z
			 M492.757,327.429v32.265l-3.112,2.71l-4.595-5.277v-22.987L492.757,327.429L492.757,327.429z M485.05,323.048v-7.959l3.942,4.527
			L485.05,323.048z M485.05,197.255v39.084l-1.462,1.273L467.3,218.904v-42.036L485.05,197.255L485.05,197.255z M485.05,256.706
			v22.987l-9.434,8.214l-8.316-9.551v-15.473l13.156-11.454L485.05,256.706L485.05,256.706z M485.05,290.784v7.959l-3.941-4.527
			L485.05,290.784L485.05,290.784z M485.05,315.089v7.959l-16.876,14.694l-0.874-1.004v-30.5l5.713-4.975L485.05,315.089
			L485.05,315.089z M485.05,334.139l-11.384,9.912l11.384,13.075V334.139L485.05,334.139z M467.3,295.148v-0.445l0.221,0.253
			L467.3,295.148L467.3,295.148z M467.3,251.793l7.663-6.672l-7.663-8.802V251.793z M467.3,176.868v42.036l-10.735-12.33v-42.036
			L467.3,176.868L467.3,176.868z M467.3,236.319v15.474l-10.735,9.347v-32.264l2.42-2.107L467.3,236.319L467.3,236.319z
			 M467.3,262.883v15.473l-7.663-8.801L467.3,262.883L467.3,262.883z M467.3,294.703v0.445l-10.735,9.347v-22.123L467.3,294.703
			L467.3,294.703z M467.3,306.239v30.5l-10.735-12.329v-8.823L467.3,306.239z M456.564,164.538v42.036l-10.735-12.331v-42.036
			L456.564,164.538L456.564,164.538z M456.564,228.876v32.264l-2.42,2.107l-8.315-9.551v-15.473L456.564,228.876L456.564,228.876z
			 M456.564,282.372v22.123l-9.862,8.586l-0.873-1.003v-30.501l5.712-4.974L456.564,282.372L456.564,282.372z M456.564,315.586
			v8.823l-4.369-5.019L456.564,315.586L456.564,315.586z M445.829,270.487v-0.445l0.22,0.253L445.829,270.487L445.829,270.487z
			 M445.829,227.132v-15.473l7.663,8.801L445.829,227.132z M445.829,152.207v42.036l-10.736-12.33v-42.036L445.829,152.207
			L445.829,152.207z M445.829,211.659v15.473l-10.736,9.347v-32.265l2.42-2.107L445.829,211.659L445.829,211.659z M445.829,238.223
			v15.473l-7.663-8.801L445.829,238.223L445.829,238.223z M445.829,270.042v0.445l-10.736,9.347v-22.122L445.829,270.042
			L445.829,270.042z M445.829,281.578v30.501l-10.736-12.33v-8.824L445.829,281.578z M435.093,139.877v42.036l-17.485-20.083
			v-29.102l6.405-5.577L435.093,139.877L435.093,139.877z M435.093,204.214v32.265l-2.42,2.107l-15.065-17.304v-1.843
			L435.093,204.214L435.093,204.214z M435.093,257.712v22.122l-9.862,8.587l-7.623-8.756v-16.871l12.463-10.851L435.093,257.712
			L435.093,257.712z M435.093,290.925v8.824l-4.369-5.019L435.093,290.925L435.093,290.925z M417.607,251.704l6.971-6.069
			l-6.971-8.006V251.704L417.607,251.704z M417.607,208.348l14.412-12.548l-14.412-16.554V208.348z M417.607,132.728v29.102
			l-10.735-12.33v-7.424L417.607,132.728L417.607,132.728z M417.607,179.245v29.102l-6.406,5.577l-4.329-4.973v-23.521l9.17-7.984
			L417.607,179.245L417.607,179.245z M417.607,219.439v1.843l-0.913-1.048L417.607,219.439L417.607,219.439z M417.607,237.628
			v14.075l-10.735,9.347v-32.264l1.727-1.504L417.607,237.628L417.607,237.628z M417.607,262.794v16.871l-8.354-9.596
			L417.607,262.794L417.607,262.794z M406.872,174.34v-7.424l3.677,4.223L406.872,174.34z M406.872,142.076v7.424l-3.677-4.224
			L406.872,142.076L406.872,142.076z M406.872,166.915v7.424l-7.708,6.71v-22.987L406.872,166.915L406.872,166.915z
			 M406.872,185.431v23.521l-7.708-8.852v-7.958L406.872,185.431L406.872,185.431z M406.872,228.786v32.264l-3.112,2.71
			l-4.595-5.277v-22.987L406.872,228.786L406.872,228.786z M399.165,224.405v-7.958l3.942,4.527L399.165,224.405z M399.165,158.063
			v22.987l-9.434,8.214l-12.037-13.825v-7.959l16.876-14.694L399.165,158.063L399.165,158.063z M399.165,192.142v7.958l-3.941-4.527
			L399.165,192.142L399.165,192.142z M399.165,216.447v7.958l-16.876,14.694l-4.595-5.277v-22.987l9.434-8.214L399.165,216.447
			L399.165,216.447z M399.165,235.496l-11.384,9.912l11.384,13.075V235.496L399.165,235.496z M377.693,199.744v-7.958l3.941,4.526
			L377.693,199.744z M377.693,167.48v7.959l-3.941-4.527L377.693,167.48L377.693,167.48z M377.693,191.786v7.958l-16.876,14.694
			l-15.979-18.352l20.818-18.126L377.693,191.786L377.693,191.786z M377.693,210.835l-11.384,9.912l11.384,13.075V210.835z"/>
		
			<rect x="610.379" y="246.469" transform="matrix(0.7542 -0.6567 0.6567 0.7542 -19.4432 489.6967)" style="fill-rule:evenodd;clip-rule:evenodd;fill:#FFD7B7;" width="67.965" height="48.699"/>
		<path style="fill-rule:evenodd;clip-rule:evenodd;fill:#FFD7B7;" d="M564.793,303.281c4.424-3.714,9.695-8.332,15.977-13.736
			l-29.739,4.247c-12.582,1.798-15.395-9.139-14.315-15.255l65.698-14.412c9.158-2.009,21.09,5.452,29.881,14.996
			c18.174,19.729,15.763,43.556-11.655,68.094l-17.396,23.036c-7.415,9.652-20.973-0.924-13.407-10.608l7.443-9.528
			c-0.784,0.046-1.738-0.113-2.601-0.301l-16.557,17.159c-8.452,8.939-19.747-3.864-12.709-11.436l13.468-14.489
			c-0.412-0.302-1.098-1.061-1.35-1.33l-18.568,16.951c-8.374,7.645-19.809-5.115-11.469-12.678l21.521-19.63
			c-0.209-0.847-0.384-1.701-0.523-2.561l-46.998,34.704c-8.944,6.605-19.421-6.911-10.099-13.795L564.793,303.281z"/>
		
			<rect x="638.536" y="237.977" transform="matrix(0.7542 -0.6567 0.6567 0.7542 -16.6592 491.2038)" style="fill-rule:evenodd;clip-rule:evenodd;fill:#3F73A1;" width="18.461" height="59.753"/>
		<polygon style="fill-rule:evenodd;clip-rule:evenodd;fill:#FFCD61;" points="799.92,182.069 799.92,86.722 631.197,234.767 
			678.259,288.819 		"/>
		
			<rect x="488.004" y="105.916" transform="matrix(0.7542 -0.6566 0.6566 0.7542 42.767 374.7805)" style="fill-rule:evenodd;clip-rule:evenodd;fill:#FFD7B7;" width="67.964" height="48.698"/>
		<path style="fill-rule:evenodd;clip-rule:evenodd;fill:#FFD7B7;" d="M478.883,204.61c4.288-3.871,9.587-8.457,15.805-13.936
			l-7.565,27.618c-3.357,12.259,6.992,17.747,13.022,16.834l22.699-62.393c3.205-8.81-2.498-21.639-10.741-31.659
			c-17.04-20.716-40.973-21.607-69.05,2.173l-49.507,28.14c-10.582,6.016-1.971,20.9,8.662,14.74l34.759-20.14
			c-0.153,0.77-0.128,1.737-0.06,2.616l-43.335,30.887c-10.016,7.141,1.11,20.09,9.579,14.161l40.266-28.193
			c0.242,0.449,0.899,1.233,1.131,1.521l-43.253,36.148c-8.699,7.27,2.341,20.324,10.98,13.104l46.312-38.705
			c0.81,0.324,1.632,0.614,2.465,0.87l-40.842,41.776c-7.772,7.95,4.173,20.187,12.275,11.901L478.883,204.61z"/>
		
			<rect x="516.161" y="97.424" transform="matrix(0.7542 -0.6567 0.6567 0.7542 45.5533 376.2923)" style="fill-rule:evenodd;clip-rule:evenodd;fill:#3F73A1;" width="18.461" height="59.752"/>
		<polygon style="fill-rule:evenodd;clip-rule:evenodd;fill:#FFCD61;" points="616.558,0 725.43,0 555.884,148.266 508.821,94.213 
					"/>
		<polygon style="fill-rule:evenodd;clip-rule:evenodd;fill:#FFAE00;" points="799.92,134.395 799.92,86.722 631.197,234.767 
			654.727,261.793 		"/>
		<polygon style="fill-rule:evenodd;clip-rule:evenodd;fill:#FFAE00;" points="670.994,0 616.558,0 508.821,94.214 532.352,121.24 
					"/>
	</g>
	<g>
		<path style="fill-rule:evenodd;clip-rule:evenodd;fill:#FFD7B7;" d="M550.179,510.786L550.179,510.786
			c5.367-0.637,10.213,3.246,10.915,8.599l12.858,97.929c0.704,5.352-3.23,10.278-8.598,10.916l0,0
			c-5.367,0.637-10.21-3.24-10.914-8.599L541.581,521.7C540.877,516.341,544.811,511.423,550.179,510.786z"/>
		<polygon style="fill-rule:evenodd;clip-rule:evenodd;fill:#FFD7B7;" points="574.799,685.339 615.758,649.678 587.74,617.497 
			568.065,554.671 507.183,607.68 		"/>
		<path style="fill-rule:evenodd;clip-rule:evenodd;fill:#FFD7B7;" d="M574.526,530.934L574.526,530.934
			c5.367-0.636,10.212,3.246,10.915,8.599l12.858,97.929c0.703,5.353-3.231,10.279-8.599,10.916l0,0
			c-5.367,0.637-10.209-3.239-10.913-8.599l-12.86-97.93C565.224,536.489,569.158,531.571,574.526,530.934z"/>
		<path style="fill-rule:evenodd;clip-rule:evenodd;fill:#FFD7B7;" d="M523.633,481.854L523.633,481.854
			c5.367-0.637,10.216,3.243,10.915,8.599l12.329,94.303c0.699,5.357-3.232,10.279-8.599,10.916l0,0
			c-5.368,0.637-10.214-3.239-10.914-8.599l-12.329-94.304C514.335,487.409,518.266,482.491,523.633,481.854z"/>
		<path style="fill-rule:evenodd;clip-rule:evenodd;fill:#004E78;" d="M443.336,500.377l36.648-31.907
			c7.098-6.18,17.96-5.429,24.14,1.669l84.712,97.296c6.18,7.098,5.429,17.96-1.669,24.14l-36.647,31.907
			c-7.098,6.18-17.96,5.429-24.14-1.669l-84.712-97.296C435.488,517.419,436.239,506.557,443.336,500.377z"/>
		<path style="fill-rule:evenodd;clip-rule:evenodd;fill:#FFFFFF;" d="M445.094,516.995l51.107-44.498
			c0.1-0.087,0.252-0.076,0.338,0.023l87.994,101.064c0.087,0.1,0.076,0.251-0.023,0.338l-51.107,44.498
			c-0.1,0.087-0.252,0.076-0.338-0.023L445.07,517.333C444.983,517.234,444.994,517.082,445.094,516.995z"/>
		<path style="fill-rule:evenodd;clip-rule:evenodd;fill:#5085A1;" d="M454.844,495.712l18.936-16.486
			c0.514-0.447,1.299-0.394,1.746,0.12l0,0c0.447,0.514,0.393,1.299-0.121,1.746l-18.936,16.487
			c-0.514,0.447-1.299,0.393-1.746-0.121l0,0C454.275,496.944,454.33,496.159,454.844,495.712z"/>
		<path style="fill-rule:evenodd;clip-rule:evenodd;fill:#5085A1;" d="M560.999,598.518c1.743-1.517,4.386-1.334,5.902,0.408
			c1.518,1.743,1.335,4.386-0.407,5.902c-1.743,1.517-4.386,1.335-5.902-0.408C559.074,602.679,559.257,600.036,560.999,598.518z"/>
		<path style="fill-rule:evenodd;clip-rule:evenodd;fill:#FFD7B7;" d="M573.424,521.829L573.424,521.829
			c5.368-0.637,10.268,3.242,10.916,8.599l2.202,18.209c0.648,5.357-3.232,10.279-8.599,10.916l0,0
			c-5.367,0.637-10.265-3.232-10.914-8.599l-2.203-18.211C564.178,527.377,568.057,522.466,573.424,521.829z"/>
		<path style="fill-rule:evenodd;clip-rule:evenodd;fill:#FFD7B7;" d="M548.922,500.399L548.922,500.399
			c5.368-0.638,10.268,3.241,10.916,8.599l1.876,15.508c0.647,5.357-3.232,10.279-8.599,10.916l0,0
			c-5.367,0.637-10.265-3.232-10.914-8.599l-1.876-15.51C539.676,505.947,543.555,501.036,548.922,500.399z"/>
		
			<rect x="561.648" y="650.915" transform="matrix(0.7542 -0.6566 0.6566 0.7542 -292.3443 555.6072)" style="fill-rule:evenodd;clip-rule:evenodd;fill:#FFAE00;" width="68.628" height="34.757"/>
		<polygon style="fill-rule:evenodd;clip-rule:evenodd;fill:#F06358;" points="578.155,706.839 636.592,655.96 762.572,799.92 
			659.611,799.92 		"/>
		<path style="fill-rule:evenodd;clip-rule:evenodd;fill:#FFD7B7;" d="M551.755,648.797l5.234-4.557l-6.207-5.98l-49.804-48.037
			c-10.358-9.99-19-5.057-25.843,0.901l58.789,56.705C538.862,652.592,546.89,653.032,551.755,648.797z"/>
		<polygon style="fill-rule:evenodd;clip-rule:evenodd;fill:#EE4E42;" points="607.373,681.4 636.592,655.96 762.573,799.92 
			711.092,799.92 		"/>
		<g>
			<g>
				<path style="fill-rule:evenodd;clip-rule:evenodd;fill:#F06358;" d="M505.866,535.196c7.571-6.592,19.052-5.798,25.644,1.772
					c6.592,7.571,5.798,19.052-1.773,25.644s-19.051,5.798-25.642-1.773C497.502,553.268,498.295,541.788,505.866,535.196z"/>
				<path style="fill-rule:evenodd;clip-rule:evenodd;fill:#7FB4E3;" d="M520.224,566.919c-3.099,0.413-6.273,0.025-9.192-1.143
					l6.77-16.872L520.224,566.919z"/>
				<path style="fill-rule:evenodd;clip-rule:evenodd;fill:#4D86B8;" d="M511.031,565.776c-2.59-1.037-4.979-2.688-6.938-4.937
					c-3.816-4.384-5.157-10.077-4.141-15.374l17.849,3.439L511.031,565.776z"/>
				<path style="fill-rule:evenodd;clip-rule:evenodd;fill:#FFAE00;" d="M499.953,545.466c0.739-3.852,2.726-7.494,5.913-10.269
					l11.936,13.708L499.953,545.466z"/>
				<path style="fill-rule:evenodd;clip-rule:evenodd;fill:#6A8733;" d="M505.866,535.196l11.936,13.708l1.397-18.121
					C514.514,530.423,509.691,531.866,505.866,535.196z"/>
			</g>
			<g>
				
					<rect x="517.601" y="578.223" transform="matrix(0.7542 -0.6567 0.6567 0.7542 -246.4196 499.4372)" style="fill-rule:evenodd;clip-rule:evenodd;fill:#B3D6F5;" width="52.561" height="1.269"/>
				
					<rect x="519.436" y="580.33" transform="matrix(0.7542 -0.6567 0.6567 0.7542 -247.3521 501.1594)" style="fill-rule:evenodd;clip-rule:evenodd;fill:#B3D6F5;" width="52.56" height="1.27"/>
				
					<rect x="521.27" y="582.436" transform="matrix(0.7542 -0.6567 0.6567 0.7542 -248.2846 502.8827)" style="fill-rule:evenodd;clip-rule:evenodd;fill:#B3D6F5;" width="52.561" height="1.27"/>
				
					<rect x="523.103" y="584.543" transform="matrix(0.7542 -0.6567 0.6567 0.7542 -249.2171 504.6037)" style="fill-rule:evenodd;clip-rule:evenodd;fill:#B3D6F5;" width="52.561" height="1.27"/>
				
					<rect x="527.91" y="594.591" transform="matrix(0.7542 -0.6567 0.6567 0.7542 -257.6055 502.2821)" style="fill-rule:evenodd;clip-rule:evenodd;fill:#B3D6F5;" width="28.374" height="1.27"/>
				
					<rect x="511.965" y="569.004" transform="matrix(0.7542 -0.6567 0.6567 0.7542 -243.5546 494.1458)" style="fill-rule:evenodd;clip-rule:evenodd;fill:#B3D6F5;" width="52.561" height="6.761"/>
			</g>
		</g>
		<g>
			
				<rect x="481.13" y="527.436" transform="matrix(0.7542 -0.6567 0.6567 0.7542 -223.9628 457.9567)" style="fill-rule:evenodd;clip-rule:evenodd;fill:#F06358;" width="37.158" height="1.376"/>
			
				<rect x="474.973" y="512.364" transform="matrix(0.7542 -0.6566 0.6566 0.7542 -228.3409 443.5352)" style="fill-rule:evenodd;clip-rule:evenodd;fill:#C17BB5;" width="6.606" height="28.814"/>
			
				<rect x="484.3" y="516.877" transform="matrix(0.7542 -0.6566 0.6566 0.7542 -225.4447 449.4335)" style="fill-rule:evenodd;clip-rule:evenodd;fill:#B6A94A;" width="6.606" height="17.95"/>
			
				<rect x="492.057" y="517.194" transform="matrix(0.7541 -0.6567 0.6567 0.7541 -221.7569 453.9291)" style="fill-rule:evenodd;clip-rule:evenodd;fill:#F06358;" width="6.605" height="11.87"/>
			
				<rect x="495.99" y="507.296" transform="matrix(0.7543 -0.6566 0.6566 0.7543 -216.1048 454.61)" style="fill-rule:evenodd;clip-rule:evenodd;fill:#5896CC;" width="6.606" height="17.437"/>
			
				<rect x="503.381" y="506.637" transform="matrix(0.7542 -0.6567 0.6567 0.7542 -212.2358 458.8292)" style="fill-rule:evenodd;clip-rule:evenodd;fill:#FFCD61;" width="6.606" height="12.469"/>
		</g>
	</g>
	<g>
		<g>
			<path style="fill-rule:evenodd;clip-rule:evenodd;fill:#013C5C;" d="M320.741,500.905l-55.448,48.276
				c-10.738,9.35-11.875,25.784-2.525,36.523l83.343,95.722c9.349,10.738,25.784,11.875,36.522,2.525l55.447-48.277
				c10.738-9.35,11.875-25.784,2.525-36.523l-83.343-95.722C347.914,492.692,331.479,491.556,320.741,500.905z"/>
			<path style="fill-rule:evenodd;clip-rule:evenodd;fill:#83A14A;" d="M343.11,501.298l-80.506,70.094
				c-0.157,0.137-0.173,0.376-0.037,0.532l96.182,110.469c0.136,0.156,0.375,0.173,0.532,0.036l80.506-70.094
				c0.156-0.137,0.173-0.376,0.036-0.532l-96.181-110.468C343.506,501.178,343.267,501.161,343.11,501.298z"/>
			<path style="fill-rule:evenodd;clip-rule:evenodd;fill:#5085A1;" d="M306.285,519.352l-20.73,18.05
				c-0.561,0.489-0.621,1.35-0.132,1.911l0,0c0.489,0.563,1.35,0.621,1.911,0.132l20.73-18.049c0.562-0.489,0.622-1.35,0.132-1.912
				l0,0C307.707,518.923,306.847,518.863,306.285,519.352z"/>
			<g>
				<polygon style="fill-rule:evenodd;clip-rule:evenodd;fill:#E7D1A7;" points="250.857,657.028 186.863,705.662 180.052,756.476 
					189.243,767.031 200.22,767.854 279.949,707.225 				"/>
				<polygon style="fill-rule:evenodd;clip-rule:evenodd;fill:#FFD7B7;" points="272.511,711.29 197.724,776.772 180.677,757.193 
					186.827,709.37 230.666,671.008 				"/>
				<polygon style="fill-rule:evenodd;clip-rule:evenodd;fill:#FFFFFF;" points="254.647,733.944 207.906,774.032 195.58,774.31 
					180.052,756.476 187.109,703.841 210.762,683.54 				"/>
				<polygon style="fill-rule:evenodd;clip-rule:evenodd;fill:#D584D0;" points="235.969,752.882 182.154,799.92 76.002,799.92 
					190.096,700.195 				"/>
				<polygon style="fill-rule:evenodd;clip-rule:evenodd;fill:#9F4C98;" points="211.865,725.198 126.376,799.92 76.002,799.92 
					190.096,700.195 				"/>
			</g>
			<g>
				
					<rect x="301.513" y="537.1" transform="matrix(0.7542 -0.6567 0.6567 0.7542 -302.3851 376.2133)" style="fill-rule:evenodd;clip-rule:evenodd;fill:#FFFFFF;" width="99.612" height="109.81"/>
				
					<rect x="384.64" y="505.983" transform="matrix(0.7542 -0.6567 0.6567 0.7542 -273.167 392.0327)" style="fill-rule:evenodd;clip-rule:evenodd;fill:#FFAE00;" width="4.837" height="109.81"/>
				
					<rect x="376.554" y="541.274" transform="matrix(0.7542 -0.6567 0.6567 0.7542 -278.746 389.0226)" style="fill-rule:evenodd;clip-rule:evenodd;fill:#ADD95B;" width="7.367" height="51.106"/>
				
					<rect x="353.139" y="526.673" transform="matrix(0.7542 -0.6566 0.6566 0.7542 -292.594 381.5106)" style="fill-rule:evenodd;clip-rule:evenodd;fill:#5896CC;" width="20.31" height="109.811"/>
				
					<rect x="372.578" y="538.337" transform="matrix(0.7542 -0.6567 0.6567 0.7542 -283.744 386.3097)" style="fill-rule:evenodd;clip-rule:evenodd;fill:#91BDE3;" width="3.088" height="67.629"/>
				
					<rect x="315.531" y="556.531" transform="matrix(0.7542 -0.6567 0.6567 0.7542 -294.9252 352.7739)" style="fill-rule:evenodd;clip-rule:evenodd;fill:#FFAE00;" width="16.413" height="27.574"/>
				
					<rect x="338.164" y="582.527" transform="matrix(0.7542 -0.6566 0.6566 0.7542 -306.4284 374.017)" style="fill-rule:evenodd;clip-rule:evenodd;fill:#F06358;" width="16.414" height="27.574"/>
				
					<rect x="360.797" y="608.522" transform="matrix(0.7542 -0.6567 0.6567 0.7542 -317.9379 395.2779)" style="fill-rule:evenodd;clip-rule:evenodd;fill:#6A8733;" width="16.413" height="27.574"/>
				
					<rect x="312.667" y="566.898" transform="matrix(0.7542 -0.6567 0.6567 0.7542 -330.3662 361.0683)" style="fill-rule:evenodd;clip-rule:evenodd;fill:#FFAE00;" width="8.855" height="109.81"/>
				
					<rect x="313.141" y="564.413" transform="matrix(0.7542 -0.6566 0.6566 0.7542 -302.3221 348.7569)" style="fill-rule:evenodd;clip-rule:evenodd;fill:#91BDE3;" width="3.088" height="27.574"/>
				
					<rect x="309.139" y="567.898" transform="matrix(0.7542 -0.6567 0.6567 0.7542 -305.5975 346.9958)" style="fill-rule:evenodd;clip-rule:evenodd;fill:#91BDE3;" width="3.089" height="27.574"/>
				
					<rect x="305.138" y="571.382" transform="matrix(0.7542 -0.6567 0.6567 0.7542 -308.8682 345.2228)" style="fill-rule:evenodd;clip-rule:evenodd;fill:#91BDE3;" width="3.088" height="27.574"/>
				
					<rect x="297.815" y="576.109" transform="matrix(0.7542 -0.6567 0.6567 0.7542 -310.4543 340.3401)" style="fill-rule:evenodd;clip-rule:evenodd;fill:#91BDE3;" width="3.088" height="17.459"/>
				
					<rect x="335.774" y="590.409" transform="matrix(0.7542 -0.6567 0.6567 0.7542 -313.8317 370.0173)" style="fill-rule:evenodd;clip-rule:evenodd;fill:#91BDE3;" width="3.088" height="27.574"/>
				
					<rect x="331.772" y="593.893" transform="matrix(0.7542 -0.6566 0.6566 0.7542 -317.1006 368.2388)" style="fill-rule:evenodd;clip-rule:evenodd;fill:#91BDE3;" width="3.088" height="27.573"/>
				
					<rect x="327.771" y="597.377" transform="matrix(0.7542 -0.6566 0.6566 0.7542 -320.3712 366.4659)" style="fill-rule:evenodd;clip-rule:evenodd;fill:#91BDE3;" width="3.088" height="27.574"/>
				
					<rect x="320.448" y="602.104" transform="matrix(0.7542 -0.6567 0.6567 0.7542 -321.9606 361.5924)" style="fill-rule:evenodd;clip-rule:evenodd;fill:#91BDE3;" width="3.088" height="17.459"/>
				
					<rect x="358.407" y="616.404" transform="matrix(0.7542 -0.6566 0.6566 0.7542 -325.3347 391.2598)" style="fill-rule:evenodd;clip-rule:evenodd;fill:#91BDE3;" width="3.088" height="27.574"/>
				
					<rect x="354.405" y="619.888" transform="matrix(0.7542 -0.6567 0.6567 0.7542 -328.6104 389.4998)" style="fill-rule:evenodd;clip-rule:evenodd;fill:#91BDE3;" width="3.088" height="27.574"/>
				
					<rect x="350.404" y="623.372" transform="matrix(0.7542 -0.6567 0.6567 0.7542 -331.881 387.7267)" style="fill-rule:evenodd;clip-rule:evenodd;fill:#91BDE3;" width="3.088" height="27.574"/>
				
					<rect x="343.082" y="628.099" transform="matrix(0.7542 -0.6566 0.6566 0.7542 -333.4616 382.8299)" style="fill-rule:evenodd;clip-rule:evenodd;fill:#91BDE3;" width="3.088" height="17.458"/>
			</g>
			<g>
				<path style="fill-rule:evenodd;clip-rule:evenodd;fill:#D4B194;" d="M276.483,591.685l-29.645,38.185
					c-3.815,4.915-13.411,27.346-8.819,31.545c4.589,4.195,19.019-8.127,22.713-13.142l19.339-28.232
					C291.16,603.852,281.945,595.666,276.483,591.685z"/>
				<path style="fill-rule:evenodd;clip-rule:evenodd;fill:#FFD7B7;" d="M354.129,576.474l-42.463,36.909
					c9.397-1.003,14.896,12.108,8.022,19.564c9.49-2.35,15.679,9.564,10.766,17.539c9.103-0.727,14.079,12.593,6.238,19.377
					l-35.913,31.076c-10.083,8.724-27.775,14.493-36.642,14.643c-26.285,0.443-36.821-31.251-32.837-44.764
					c3.106-10.535,4.153-18.393,9.485-23.137l99.32-86.881C352.602,549.684,364.645,567.615,354.129,576.474z"/>
				<path style="fill-rule:evenodd;clip-rule:evenodd;fill:#D4B194;" d="M318.34,661.899c0,0,7.245-6.022,13.655-11.399
					c-0.499-0.049-1.013-0.055-1.541-0.014c0.431-0.7,0.775-1.432,1.041-2.181C325.511,654.397,318.34,661.899,318.34,661.899
					L318.34,661.899z M310.042,642.442v-0.853c3.432-3.573,8.248-8.554,11.876-12.172c-0.503,1.254-1.236,2.451-2.23,3.529
					c0.632-0.155,1.248-0.248,1.847-0.282C317.637,635.993,313.215,639.75,310.042,642.442L310.042,642.442z M310.042,617.03v-2.186
					c0.589-0.537,1.136-1.029,1.625-1.462c-0.08,0.07,0.033,0.053,0.27-0.023c0.837-0.066,1.643-0.02,2.41,0.125
					C313.05,614.565,311.581,615.774,310.042,617.03z M310.042,614.845v2.186c-7.01,5.726-15.449,12.438-15.449,12.438
					S304.331,620.052,310.042,614.845L310.042,614.845z M310.042,641.59v0.853c-2.558,2.171-4.305,3.649-4.305,3.649
					S307.515,644.222,310.042,641.59z"/>
			</g>
			<path style="fill-rule:evenodd;clip-rule:evenodd;fill:#5085A1;" d="M408.582,651.492c1.496,1.718,1.315,4.323-0.402,5.819
				c-1.719,1.497-4.324,1.316-5.82-0.402c-1.496-1.718-1.316-4.323,0.402-5.819C404.479,649.594,407.086,649.774,408.582,651.492z"
				/>
		</g>
		<g>
			<polygon style="fill-rule:evenodd;clip-rule:evenodd;fill:#FFFFFF;" points="329.822,543.135 327.99,544.73 328.531,541.652 
				331.654,541.54 			"/>
			<polygon style="fill-rule:evenodd;clip-rule:evenodd;fill:#FFFFFF;" points="396.766,620.022 394.934,621.618 398.057,621.505 
				398.599,618.428 			"/>
		</g>
	</g>
	<path style="fill-rule:evenodd;clip-rule:evenodd;fill:#71A9D9;" d="M143.144,642.866c1.955,1.13,3.27,3.243,3.27,5.663
		c0,2.42-1.315,4.533-3.27,5.664V642.866L143.144,642.866z M143.144,635.569c5.8,1.459,10.094,6.708,10.094,12.96h3.978
		c0-8.46-6.058-15.503-14.072-17.032V635.569L143.144,635.569z M143.144,625.732c11.17,1.588,19.76,11.189,19.76,22.797h3.697
		c0-13.653-10.239-24.914-23.457-26.526V625.732z M139.874,641.99c1.191,0,2.308,0.319,3.27,0.876v11.327
		c-0.961,0.557-2.078,0.875-3.27,0.875c-3.61,0-6.539-2.928-6.539-6.539C133.336,644.918,136.264,641.99,139.874,641.99
		L139.874,641.99z M143.144,622.003v3.729c-1.068-0.152-2.159-0.232-3.27-0.232v-3.696
		C140.981,621.804,142.072,621.872,143.144,622.003L143.144,622.003z M143.144,631.497v4.072c-1.046-0.263-2.141-0.403-3.27-0.403
		v-3.977C140.992,631.188,142.085,631.295,143.144,631.497z"/>
	<g>
		<g>
			<path style="fill:#013C5C;" d="M645.426,437.342c5.803-0.004,11.654,1.806,16.648,5.559c12.237,9.197,14.704,26.571,5.508,38.809
				c-5.441,7.239-13.746,11.058-22.156,11.063v-5.168c6.843-0.007,13.601-3.113,18.027-9.003l0,0
				c7.479-9.949,5.472-24.087-4.486-31.569c-4.062-3.053-8.821-4.524-13.541-4.523V437.342z M623.273,448.403
				c5.438-7.24,13.743-11.056,22.152-11.061v5.168c-6.842,0.005-13.6,3.109-18.025,8.999c-7.477,9.951-5.475,24.094,4.479,31.574
				c4.063,3.054,8.826,4.525,13.547,4.522v5.168c-5.804,0.005-11.657-1.806-16.654-5.562
				C616.538,478.018,614.074,460.643,623.273,448.403z"/>
			
				<rect x="672.219" y="474.524" transform="matrix(0.6006 -0.7996 0.7996 0.6006 -120.2034 735.3875)" style="fill:#013C5C;" width="7.494" height="26.969"/>
			<path style="fill:#013C5C;" d="M693.527,508.7c2.645,1.993,6.405,1.456,8.392-1.19c1.988-2.642,1.456-6.399-1.194-8.389
				l-20.359-15.302c-2.644-1.987-6.401-1.456-8.391,1.186c-1.987,2.647-1.454,6.404,1.19,8.394L693.527,508.7z"/>
		</g>
		<g>
			
				<rect x="675.441" y="481.476" transform="matrix(0.6005 -0.7996 0.7996 0.6005 -120.8704 739.2949)" style="fill:#FFCD61;" width="7.978" height="18.27"/>
			<path style="fill:#FFCD61;" d="M693.952,509.505c2.816,2.121,6.819,1.55,8.935-1.268c2.117-2.811,1.55-6.813-1.271-8.931
				l-21.676-16.291c-1.609-1.209-3.604-1.541-5.416-1.079l-4.792,6.374c0.059,1.869,0.934,3.694,2.543,4.904L693.952,509.505z"/>
		</g>
	</g>
	<g>
		<path style="fill-rule:evenodd;clip-rule:evenodd;fill:#FFFFFF;" d="M116.494,552.854h1.698c4.876,0,5.085-5.521,0-5.529
			l-1.698-0.002v0.441l0,0c1.279,0,2.316,1.037,2.316,2.316s-1.037,2.316-2.316,2.316l0,0V552.854z M76.352,552.854h40.142v-0.457
			c-1.28,0-2.316-1.037-2.316-2.316s1.036-2.316,2.316-2.316v-0.441c-13.38-0.021-26.762-0.021-40.142,0v0.441
			c1.279,0,2.316,1.037,2.316,2.316s-1.038,2.316-2.316,2.316V552.854z M74.654,552.854h1.698v-0.457
			c-1.279,0-2.316-1.037-2.316-2.316s1.037-2.316,2.316-2.316v-0.441l-1.698,0.002C69.57,547.333,69.778,552.854,74.654,552.854z"/>
		<path style="fill-rule:evenodd;clip-rule:evenodd;fill:#FFFFFF;" d="M99.498,528.469c-1.279,0-2.316,1.037-2.316,2.316
			s1.037,2.316,2.316,2.316s2.317-1.037,2.317-2.316S100.778,528.469,99.498,528.469z"/>
		<path style="fill-rule:evenodd;clip-rule:evenodd;fill:#FFFFFF;" d="M117.394,549.464l-15.806-17.678
			c-0.365-0.408-0.998-0.443-1.406-0.078l0,0c-0.408,0.365-0.443,0.997-0.079,1.405l15.806,17.678
			c0.366,0.408,0.997,0.443,1.406,0.079l0,0C117.723,550.505,117.759,549.873,117.394,549.464z"/>
		<circle style="fill-rule:evenodd;clip-rule:evenodd;fill:#FFFFFF;" cx="93.347" cy="530.785" r="2.316"/>
		<path style="fill-rule:evenodd;clip-rule:evenodd;fill:#FFFFFF;" d="M75.452,549.464l17.24-19.281
			c0.365-0.408,0.998-0.443,1.406-0.078l0,0c0.408,0.364,0.443,0.997,0.079,1.405l-17.24,19.281
			c-0.365,0.408-0.997,0.443-1.405,0.079l0,0C75.122,550.505,75.086,549.873,75.452,549.464z"/>
		<path style="fill-rule:evenodd;clip-rule:evenodd;fill:#FFFFFF;" d="M109.812,554.501h8.095l-2.119,12.205
			c-0.456,2.628-1.743,4.607-5.778,4.607h-0.197v-3.682c0.574-0.282,1.021-0.854,1.11-1.511c0.19-1.393,0.385-2.786,0.575-4.179
			c0.19-1.392,0.385-2.785,0.575-4.178c0.127-0.937-0.597-1.702-1.614-1.702l0,0c-0.223,0-0.441,0.037-0.646,0.105V554.501z
			 M103.147,554.501h6.664v1.665c-0.732,0.24-1.308,0.867-1.383,1.598c-0.145,1.393-0.295,2.786-0.442,4.178
			c-0.146,1.393-0.295,2.786-0.441,4.179c-0.099,0.936,0.568,1.699,1.483,1.699l0,0c0.272,0,0.539-0.067,0.783-0.188v3.682h-6.664
			v-3.548c0.726-0.191,1.304-0.857,1.364-1.645c0.107-1.393,0.216-2.786,0.321-4.179c0.104-1.392,0.216-2.785,0.321-4.178
			c0.069-0.937-0.696-1.702-1.713-1.702l0,0c-0.1,0-0.198,0.008-0.293,0.022V554.501z M96.418,554.501h6.729v1.582
			c-0.885,0.131-1.598,0.836-1.635,1.681c-0.061,1.393-0.127,2.786-0.188,4.178c-0.061,1.393-0.127,2.786-0.187,4.179
			c-0.041,0.936,0.673,1.699,1.585,1.699l0,0c0.145,0,0.288-0.018,0.425-0.055v3.548h-6.729v-3.493
			c0.914-0.001,1.67-0.764,1.686-1.699c0.022-1.393,0.044-2.786,0.066-4.179c0.023-1.392,0.044-2.785,0.067-4.178
			c0.015-0.937-0.801-1.702-1.816-1.702l0,0h-0.002V554.501z M89.688,554.501h6.73v1.56c-1.013,0.002-1.834,0.767-1.818,1.702
			c0.022,1.393,0.043,2.786,0.066,4.178c0.024,1.393,0.04,2.786,0.064,4.179c0.015,0.936,0.778,1.699,1.686,1.699l0,0h0.002v3.493
			h-6.73v-3.549c0.138,0.037,0.28,0.056,0.426,0.056l0,0c0.911,0,1.622-0.764,1.582-1.699c-0.061-1.393-0.123-2.786-0.185-4.179
			c-0.062-1.392-0.126-2.785-0.188-4.178c-0.037-0.847-0.748-1.554-1.636-1.682V554.501z M83.027,554.501h6.661v1.581
			c-0.094-0.013-0.189-0.021-0.286-0.021l0,0c-1.017,0-1.79,0.766-1.718,1.702c0.106,1.393,0.212,2.786,0.32,4.178
			c0.108,1.393,0.212,2.786,0.318,4.179c0.061,0.787,0.639,1.452,1.366,1.644v3.549h-6.661v-3.68
			c0.243,0.119,0.509,0.186,0.78,0.186l0,0c0.915,0,1.579-0.764,1.48-1.699c-0.146-1.393-0.291-2.786-0.438-4.179
			c-0.148-1.392-0.297-2.785-0.442-4.178c-0.076-0.732-0.648-1.359-1.38-1.599V554.501z M82.837,571.313
			c-4.035,0-5.321-1.979-5.778-4.607l-2.119-12.205h8.087v1.664c-0.204-0.066-0.421-0.104-0.643-0.104l0,0
			c-1.017,0-1.741,0.766-1.613,1.702c0.189,1.393,0.382,2.786,0.575,4.178c0.192,1.393,0.382,2.786,0.572,4.179
			c0.089,0.657,0.536,1.23,1.11,1.513v3.68H82.837z"/>
	</g>
	<path style="fill-rule:evenodd;clip-rule:evenodd;fill:#FFFFFF;" d="M331.082,67.303c6.669,1.366,11.66,6.444,11.66,12.454l0,0
		c0,6.178-5.172,12.56-12.224,12.56h-30.997c-7.548,0-13.365-6.047-13.365-12.56l0,0c0-6.01,4.99-11.088,11.66-12.454
		c-0.004-0.121-0.006-0.242-0.006-0.363c0-7.721,7.45-13.98,16.639-13.98c9.189,0,16.639,6.259,16.639,13.98
		C331.088,67.062,331.085,67.183,331.082,67.303z"/>
	<g>
		<path style="fill-rule:evenodd;clip-rule:evenodd;fill:#FFAE00;" d="M211.072,521.424l5.555,15.175l-14.949-6.138l-47.375-49.243
			c-1.355-1.409-1.312-3.671,0.097-5.026l4.27-4.108c1.409-1.355,3.671-1.311,5.027,0.098L211.072,521.424z"/>
		<path style="fill-rule:evenodd;clip-rule:evenodd;fill:#FFCD61;" d="M211.072,521.424l5.555,15.175l-10.662-11.082l-49.43-51.38
			l2.135-2.054c1.409-1.355,3.672-1.311,5.027,0.098L211.072,521.424z"/>
		<path style="fill-rule:evenodd;clip-rule:evenodd;fill:#C0F7FC;" d="M211.072,521.424l5.555,15.175l-14.949-6.138l-43.746-45.471
			c2.767-3.744,5.901-6.712,9.394-9.037L211.072,521.424z"/>
		<path style="fill-rule:evenodd;clip-rule:evenodd;fill:#FFFFFF;" d="M211.072,521.424l5.555,15.175l-10.662-11.082l-43.732-45.457
			c1.603-1.55,3.301-2.913,5.094-4.106L211.072,521.424z"/>
		<path style="fill-rule:evenodd;clip-rule:evenodd;fill:#CC3D33;" d="M211.072,521.424l5.555,15.175l-14.949-6.138l-40.863-42.474
			c2.747-3.802,5.882-6.767,9.394-9.038L211.072,521.424z"/>
		<path style="fill-rule:evenodd;clip-rule:evenodd;fill:#F06358;" d="M210.733,521.095l5.512,15.057l-10.579-10.995l-40.558-42.157
			c1.594-1.545,3.288-2.886,5.081-4.047L210.733,521.095z"/>
		<path style="fill-rule:evenodd;clip-rule:evenodd;fill:#C0F7FC;" d="M211.072,521.424l5.555,15.175l-14.948-6.138
			c1.226-1.713,2.658-3.377,4.287-4.944C207.594,523.95,209.313,522.582,211.072,521.424z"/>
		<path style="fill-rule:evenodd;clip-rule:evenodd;fill:#FFFFFF;" d="M211.072,521.424l5.555,15.175l-10.662-11.082
			C207.594,523.949,209.313,522.582,211.072,521.424z"/>
		<path style="fill-rule:evenodd;clip-rule:evenodd;fill:#3F73A1;" d="M214.791,531.585l1.835,5.014l-4.938-2.027
			c0.405-0.566,0.878-1.115,1.416-1.634C213.643,532.42,214.21,531.968,214.791,531.585z"/>
	</g>
	<g>
		<polygon style="fill-rule:evenodd;clip-rule:evenodd;fill:#FFD7B7;" points="262.212,232.85 202.762,164.673 159.045,157.299 
			159.227,194.632 219.302,263.483 		"/>
		<polygon style="fill-rule:evenodd;clip-rule:evenodd;fill:#FFCD61;" points="236.28,196.132 205.719,161.102 159.045,157.299 
			155.882,196.127 190.601,235.903 		"/>
		<path style="fill-rule:evenodd;clip-rule:evenodd;fill:#FFD7B7;" d="M290.355,256.474c1.85-22.696-15.05-42.594-37.747-44.443
			c-22.696-1.849-42.593,15.051-44.442,37.747c-1.85,22.697,15.05,42.594,37.747,44.443
			C268.608,296.069,288.506,279.169,290.355,256.474z"/>
		<path style="fill-rule:evenodd;clip-rule:evenodd;fill:#D4B194;" d="M267.81,235.032c-2.424-10.139-13.61-15.369-24.984-11.682
			c-11.374,3.686-18.63,14.894-16.206,25.033c2.424,10.138,13.61,15.369,24.984,11.682
			C262.978,256.378,270.234,245.17,267.81,235.032z"/>
		<path style="fill-rule:evenodd;clip-rule:evenodd;fill:#D4B194;" d="M317.649,282.148c2.522-2.188,2.8-6.045,0.609-8.564
			l-41.659-47.862c-3.8-4.366-13.065-7.778-17.439-3.985l0,0c-4.372,3.792-4.86,10.486-1.054,14.846l36.977,42.405
			C301.271,286.086,312.268,286.816,317.649,282.148z"/>
		<path style="fill-rule:evenodd;clip-rule:evenodd;fill:#013C5C;" d="M337.247,466.416l61.911-53.904
			c11.991-10.439,13.259-28.79,2.82-40.781L308.918,264.85c-10.439-11.99-28.79-13.259-40.781-2.819l-61.911,53.904
			c-11.991,10.44-13.259,28.791-2.82,40.781l93.059,106.881C306.905,475.588,325.256,476.856,337.247,466.416z"/>
		<path style="fill-rule:evenodd;clip-rule:evenodd;fill:#EE4E42;" d="M312.269,465.978l89.893-78.267
			c0.175-0.152,0.193-0.419,0.041-0.594L294.808,263.771c-0.152-0.175-0.42-0.193-0.594-0.042l-89.893,78.267
			c-0.175,0.152-0.193,0.419-0.041,0.594l107.395,123.347C311.827,466.112,312.094,466.131,312.269,465.978z"/>
		<path style="fill-rule:evenodd;clip-rule:evenodd;fill:#FFFFFF;" d="M310.73,448.738l74.567-64.923
			c0.145-0.127,0.16-0.348,0.034-0.493l-89.085-102.317c-0.126-0.145-0.348-0.161-0.493-0.034l-74.566,64.923
			c-0.145,0.126-0.161,0.348-0.034,0.493l89.084,102.317C310.363,448.849,310.585,448.864,310.73,448.738z"/>
		<g>
			<path style="fill-rule:evenodd;clip-rule:evenodd;fill:#FFFFFF;" d="M356.223,392.205c-5.556,4.837-13.981,4.255-18.819-1.301
				c-4.837-5.556-4.255-13.981,1.301-18.818c5.556-4.837,13.981-4.255,18.818,1.301
				C362.361,378.943,361.779,387.368,356.223,392.205z"/>
			<path style="fill-rule:evenodd;clip-rule:evenodd;fill:#7FB4E3;" d="M336.325,386.431c-2.367-6.152,0.702-13.057,6.853-15.424
				c6.152-2.367,13.058,0.702,15.424,6.853c2.367,6.152-0.701,13.058-6.852,15.424l1.008,2.621c7.6-2.924,11.39-11.455,8.466-19.053
				c-2.924-7.599-11.455-11.389-19.054-8.466c-7.599,2.924-11.389,11.455-8.465,19.054c1.014,2.638,2.704,4.815,4.795,6.413
				l1.708-2.229C338.515,390.329,337.147,388.566,336.325,386.431z"/>
			<path style="fill-rule:evenodd;clip-rule:evenodd;fill:#FFFFFF;" d="M323.183,420.972c-5.556,4.838-13.981,4.255-18.819-1.301
				c-4.837-5.556-4.255-13.981,1.302-18.818c5.555-4.837,13.981-4.255,18.818,1.301C329.321,407.71,328.739,416.135,323.183,420.972
				z"/>
			<path style="fill-rule:evenodd;clip-rule:evenodd;fill:#F06358;" d="M303.609,415.962c-1.865-4.002-1.428-8.888,1.535-12.553
				c4.145-5.125,11.659-5.922,16.785-1.778c5.126,4.145,5.921,11.659,1.777,16.785l2.184,1.765
				c5.118-6.331,4.136-15.614-2.196-20.733c-6.332-5.119-15.614-4.136-20.733,2.196c-3.661,4.527-4.2,10.563-1.896,15.506
				L303.609,415.962z"/>
			<path style="fill-rule:evenodd;clip-rule:evenodd;fill:#7FB4E3;" d="M346.699,383.717l-3.856-4.429
				c-0.581-0.667-0.51-1.689,0.157-2.27l0,0c0.668-0.581,1.689-0.51,2.27,0.157l3.855,4.428l0.002-1.606
				c0.001-0.884,0.725-1.608,1.61-1.607l0,0c0.885,0.001,1.609,0.726,1.607,1.611l-0.017,6.172c-0.002,0.972-0.585,1.489-1.42,1.374
				l-6.239-0.864c-0.876-0.121-1.495-0.936-1.374-1.813l0,0c0.121-0.876,0.937-1.494,1.813-1.374L346.699,383.717z"/>
			<path style="fill-rule:evenodd;clip-rule:evenodd;fill:#F06358;" d="M315.189,409.34l3.856,4.429
				c0.581,0.667,0.51,1.689-0.157,2.27l0,0c-0.668,0.581-1.688,0.51-2.269-0.157l-3.856-4.429l-0.001,1.607
				c-0.001,0.885-0.726,1.608-1.61,1.607l0,0c-0.885-0.001-1.609-0.726-1.607-1.61l0.017-6.171c0.003-0.973,0.584-1.49,1.419-1.375
				l6.239,0.862c0.875,0.122,1.495,0.938,1.374,1.814l0,0c-0.121,0.877-0.937,1.495-1.813,1.374L315.189,409.34z"/>
			<path style="fill-rule:evenodd;clip-rule:evenodd;fill:#FFFFFF;" d="M329.251,361.564c-5.556,4.837-13.982,4.254-18.818-1.301
				c-4.837-5.556-4.255-13.982,1.301-18.819c5.556-4.837,13.981-4.254,18.819,1.302
				C335.389,348.302,334.807,356.727,329.251,361.564z"/>
			<path style="fill-rule:evenodd;clip-rule:evenodd;fill:#FFAE00;" d="M309.354,355.79c-2.367-6.152,0.701-13.058,6.853-15.424
				c6.151-2.367,13.057,0.701,15.424,6.853c2.367,6.152-0.701,13.058-6.853,15.424l1.008,2.621
				c7.6-2.924,11.389-11.454,8.466-19.053c-2.924-7.599-11.455-11.389-19.054-8.466c-7.599,2.924-11.39,11.455-8.465,19.054
				c1.014,2.637,2.704,4.814,4.795,6.413l1.708-2.23C311.543,359.688,310.175,357.924,309.354,355.79z"/>
			<path style="fill-rule:evenodd;clip-rule:evenodd;fill:#FFFFFF;" d="M296.211,390.331c-5.556,4.837-13.981,4.255-18.818-1.301
				c-4.838-5.556-4.255-13.982,1.301-18.819c5.556-4.837,13.982-4.254,18.819,1.302C302.35,377.068,301.767,385.494,296.211,390.331
				z"/>
			<path style="fill-rule:evenodd;clip-rule:evenodd;fill:#4D86B8;" d="M276.637,385.321c-1.865-4.002-1.429-8.889,1.535-12.553
				c4.144-5.126,11.659-5.921,16.784-1.778c5.126,4.144,5.921,11.659,1.777,16.784l2.184,1.765
				c5.119-6.331,4.136-15.614-2.196-20.733c-6.332-5.119-15.614-4.137-20.733,2.196c-3.66,4.527-4.2,10.563-1.896,15.507
				L276.637,385.321z"/>
			<path style="fill-rule:evenodd;clip-rule:evenodd;fill:#FFAE00;" d="M319.728,353.077l-3.856-4.429
				c-0.581-0.668-0.51-1.688,0.157-2.27l0,0c0.668-0.581,1.688-0.511,2.269,0.157l3.856,4.429l0.001-1.607
				c0.001-0.885,0.726-1.608,1.611-1.607l0,0c0.885,0.001,1.609,0.726,1.607,1.61l-0.017,6.172c-0.003,0.971-0.586,1.489-1.42,1.374
				l-6.239-0.863c-0.876-0.122-1.494-0.936-1.374-1.814l0,0c0.121-0.876,0.936-1.495,1.813-1.374L319.728,353.077z"/>
			<path style="fill-rule:evenodd;clip-rule:evenodd;fill:#4D86B8;" d="M288.217,378.699l3.856,4.429
				c0.581,0.667,0.51,1.688-0.157,2.27l0,0c-0.667,0.581-1.688,0.51-2.269-0.158l-3.856-4.429l-0.001,1.607
				c-0.001,0.885-0.726,1.608-1.61,1.608l0,0c-0.885-0.002-1.61-0.726-1.607-1.61l0.016-6.172c0.003-0.972,0.586-1.49,1.42-1.375
				l6.239,0.863c0.876,0.122,1.495,0.936,1.375,1.814l0,0c-0.122,0.876-0.937,1.495-1.814,1.374L288.217,378.699z"/>
			<path style="fill-rule:evenodd;clip-rule:evenodd;fill:#FFFFFF;" d="M303.999,332.561c-5.556,4.837-13.981,4.255-18.819-1.301
				c-4.837-5.556-4.255-13.981,1.301-18.819c5.556-4.837,13.981-4.254,18.818,1.302
				C310.138,319.299,309.556,327.724,303.999,332.561z"/>
			<path style="fill-rule:evenodd;clip-rule:evenodd;fill:#F06358;" d="M284.209,327.739c-1.865-4.002-1.428-8.889,1.535-12.554
				c4.144-5.125,11.659-5.921,16.785-1.777c5.125,4.143,5.921,11.658,1.776,16.784l2.184,1.766
				c5.119-6.332,4.136-15.614-2.196-20.733c-6.331-5.119-15.614-4.136-20.733,2.196c-3.661,4.527-4.2,10.563-1.896,15.507
				L284.209,327.739z"/>
			<path style="fill-rule:evenodd;clip-rule:evenodd;fill:#F06358;" d="M296.004,320.929l3.856,4.429
				c0.581,0.668,0.51,1.688-0.157,2.269l0,0c-0.668,0.581-1.689,0.511-2.27-0.156l-3.857-4.429l-0.001,1.607
				c-0.001,0.885-0.725,1.607-1.611,1.606l0,0c-0.884,0-1.609-0.726-1.606-1.61l0.016-6.172c0.004-0.971,0.586-1.49,1.42-1.374
				l6.239,0.863c0.876,0.121,1.495,0.937,1.374,1.813l0,0c-0.121,0.876-0.936,1.495-1.813,1.374L296.004,320.929z"/>
			<g>
				
					<rect x="252.763" y="356.67" transform="matrix(0.7542 -0.6567 0.6567 0.7542 -169.1974 263.1276)" style="fill-rule:evenodd;clip-rule:evenodd;fill:#BADAF5;" width="28.192" height="1.78"/>
				
					<rect x="250.192" y="353.716" transform="matrix(0.7542 -0.6567 0.6567 0.7542 -167.8901 260.7129)" style="fill-rule:evenodd;clip-rule:evenodd;fill:#BADAF5;" width="28.191" height="1.78"/>
				
					<rect x="247.62" y="350.762" transform="matrix(0.7542 -0.6566 0.6566 0.7542 -166.5804 258.2877)" style="fill-rule:evenodd;clip-rule:evenodd;fill:#BADAF5;" width="28.192" height="1.78"/>
				
					<rect x="245.048" y="347.809" transform="matrix(0.7542 -0.6567 0.6567 0.7542 -165.2744 255.8791)" style="fill-rule:evenodd;clip-rule:evenodd;fill:#BADAF5;" width="28.191" height="1.78"/>
				
					<rect x="253.855" y="340.596" transform="matrix(0.7542 -0.6567 0.6567 0.7542 -159.9685 255.6331)" style="fill-rule:evenodd;clip-rule:evenodd;fill:#BADAF5;" width="15.218" height="1.78"/>
			</g>
		</g>
		<path style="fill-rule:evenodd;clip-rule:evenodd;fill:#5085A1;" d="M353.387,445.818l23.148-20.153
			c0.628-0.547,0.694-1.507,0.147-2.135h-0.001c-0.546-0.628-1.506-0.694-2.134-0.148L351.4,443.536
			c-0.628,0.547-0.694,1.507-0.147,2.135l0,0C351.8,446.299,352.76,446.365,353.387,445.818z"/>
		<path style="fill-rule:evenodd;clip-rule:evenodd;fill:#5085A1;" d="M252.656,299.064c1.645-2.099,1.277-5.133-0.82-6.777
			c-2.099-1.645-5.133-1.277-6.778,0.82c-1.645,2.098-1.278,5.132,0.82,6.777C247.977,301.528,251.011,301.161,252.656,299.064z"/>
		<path style="fill-rule:evenodd;clip-rule:evenodd;fill:#FFD7B7;" d="M323.826,276.103l-45.176-51.901
			c-3.799-4.366-13.065-7.778-17.438-3.985l0,0c-4.373,3.793-4.861,10.486-1.055,14.846l35.468,40.673
			C305.965,287.593,320.664,279.467,323.826,276.103z"/>
		<path style="fill-rule:evenodd;clip-rule:evenodd;fill:#FFD7B7;" d="M270.411,229.852c-2.74-9.938-15.052-14.45-27.501-10.079
			c-12.449,4.373-20.319,15.972-17.58,25.91c2.739,9.938,15.051,14.449,27.501,10.078
			C265.279,251.389,273.15,239.789,270.411,229.852z"/>
		<g>
			<polygon style="fill-rule:evenodd;clip-rule:evenodd;fill:#E7D1A7;" points="200.74,297.489 156.368,239.104 101.096,231.694 
				99.626,251.29 154.943,324.032 			"/>
			<polygon style="fill-rule:evenodd;clip-rule:evenodd;fill:#FFD7B7;" points="151.234,317.245 91.218,248.7 90.72,231.063 
				152.985,239.07 187.985,279.067 			"/>
			<polygon style="fill-rule:evenodd;clip-rule:evenodd;fill:#FFCD61;" points="130.564,300.947 93.99,258.302 93.367,230.658 
				158.029,239.327 176.552,260.908 			"/>
			<polygon style="fill-rule:evenodd;clip-rule:evenodd;fill:#83A14A;" points="113.286,283.905 0,153.632 0,56.501 
				161.356,242.052 			"/>
			<polygon style="fill-rule:evenodd;clip-rule:evenodd;fill:#6A8733;" points="113.286,283.905 0,153.632 0,104.212 
				137.744,262.61 			"/>
		</g>
		<g>
			<path style="fill-rule:evenodd;clip-rule:evenodd;fill:#D4B194;" d="M273.017,313.591l-48.955-26.907
				c-4.975-2.735-26.561-8.166-29.686-3.426c-3.123,4.735,10.048,15.973,15.096,18.581l38.511,19.047
				C264.03,328.824,270.212,319.083,273.017,313.591z"/>
			<path style="fill-rule:evenodd;clip-rule:evenodd;fill:#FFD7B7;" d="M287.133,375.743l-38.925-33.008
				c2.25,8.324-8.776,15.157-16.479,10.031c3.478,8.214-6.371,15.497-14.26,12.214c1.959,8.097-9.329,14.491-16.566,8.398
				l-33.146-27.906c-9.307-7.835-17.039-22.95-18.445-30.918c-4.166-23.619,22.881-37.654,35.628-36.001
				c9.938,1.29,17.167,1.106,22.206,5.231l93.309,76.551C312.263,370.002,296.623,383.948,287.133,375.743z"/>
			<path style="fill-rule:evenodd;clip-rule:evenodd;fill:#D4B194;" d="M233.248,353.607v-0.768c0.689,0.495,1.354,0.975,1.98,1.43
				C234.559,354.118,233.896,353.899,233.248,353.607L233.248,353.607z M233.248,331.463v-0.314
				c3.622,2.739,11.28,8.56,14.959,11.585c-0.076-0.063-0.043,0.037,0.059,0.239c0.18,0.745,0.253,1.478,0.233,2.19
				C243.76,341.02,236.665,334.578,233.248,331.463z M205.449,355.7c0,0,6.465,5.664,12.228,10.67
				c-0.028-0.457-0.095-0.921-0.208-1.391c0.692,0.288,1.4,0.493,2.114,0.625C213.235,361.086,205.449,355.7,205.449,355.7
				L205.449,355.7z M233.248,331.149v0.314c-1.227-1.118-1.98-1.808-1.98-1.808S232.03,330.228,233.248,331.149L233.248,331.149z
				 M233.248,352.839v0.768c-0.518-0.233-1.025-0.512-1.52-0.841c0.232,0.547,0.402,1.088,0.52,1.624
				c-6.427-5.484-14.361-12.311-14.361-12.311S226.706,348.145,233.248,352.839z"/>
		</g>
		<polygon style="fill-rule:evenodd;clip-rule:evenodd;fill:#83A14A;" points="225.206,180.517 67.808,0 0,0 0,21.578 
			175.965,223.389 		"/>
		<polygon style="fill-rule:evenodd;clip-rule:evenodd;fill:#6A8733;" points="200.585,201.953 24.251,0 0,0 0,21.578 
			175.965,223.389 		"/>
	</g>
	<g>
		<path style="fill-rule:evenodd;clip-rule:evenodd;fill:#95BA50;" d="M243.69,90.818l32.464,22.322l4.875,21.974l-22.263,3.314
			l-17.549-12.067v-15.311c1.052,0,2.086-0.502,2.728-1.435c1.037-1.507,0.655-3.569-0.853-4.605
			c-0.574-0.395-1.228-0.583-1.876-0.583V94.415L243.69,90.818z M241.218,126.362l-14.915-10.256l14.915-21.691v10.014
			c-1.053,0.001-2.087,0.502-2.729,1.435c-1.036,1.507-0.655,3.568,0.853,4.605c0.574,0.395,1.229,0.584,1.876,0.583V126.362z"/>
		<path style="fill-rule:evenodd;clip-rule:evenodd;fill:#FFFFFF;" d="M257.914,130.146v-2.608c0.29-0.28,0.612-0.677,0.966-1.191
			c0.629-0.915,0.952-1.603,0.963-2.054c-0.001-0.343-0.145-0.612-0.434-0.811c-0.289-0.198-0.591-0.237-0.905-0.11
			c-0.178,0.07-0.375,0.207-0.59,0.41v-2.516c0.858-0.109,1.711,0.127,2.559,0.71c0.965,0.663,1.517,1.492,1.652,2.483
			c0.137,0.988-0.228,2.115-1.096,3.379c-0.873,1.27-1.797,2.017-2.772,2.246C258.143,130.112,258.028,130.132,257.914,130.146
			L257.914,130.146z M257.914,118.74v-2.429l5.719-3.131l1.942,1.335L257.914,118.74z M253.524,107.278
			c0.856-0.109,1.705,0.123,2.542,0.699c0.981,0.674,1.542,1.504,1.679,2.493c0.14,0.985-0.23,2.113-1.104,3.383
			c-0.866,1.26-1.787,2.009-2.759,2.234c-0.12,0.028-0.239,0.05-0.358,0.064v-2.591c0.292-0.281,0.618-0.684,0.978-1.207
			c0.632-0.919,0.95-1.599,0.955-2.05c0.002-0.347-0.141-0.618-0.429-0.816c-0.282-0.194-0.581-0.23-0.9-0.111
			c-0.183,0.073-0.384,0.213-0.604,0.422V107.278L253.524,107.278z M257.914,116.31v2.429l-4.39,2.42v-2.446L257.914,116.31
			L257.914,116.31z M257.914,121.267v2.516c-0.296,0.28-0.628,0.687-0.993,1.217c-0.629,0.916-0.946,1.601-0.948,2.054
			c-0.002,0.347,0.14,0.619,0.422,0.813c0.289,0.198,0.587,0.235,0.9,0.111c0.186-0.075,0.393-0.221,0.619-0.439v2.608
			c-0.855,0.108-1.702-0.124-2.538-0.699c-0.982-0.674-1.536-1.505-1.673-2.494c-0.135-0.992,0.232-2.122,1.104-3.392
			c0.869-1.263,1.79-2.007,2.763-2.233C257.685,121.302,257.8,121.281,257.914,121.267z M250.423,109.577
			c0.869-1.263,1.787-2.009,2.762-2.238c0.113-0.026,0.226-0.046,0.339-0.061v2.52c-0.294,0.279-0.622,0.681-0.983,1.206
			c-0.63,0.915-0.946,1.607-0.951,2.063c0.001,0.343,0.142,0.609,0.424,0.804c0.289,0.199,0.591,0.237,0.912,0.115
			c0.18-0.073,0.379-0.215,0.598-0.425v2.591c-0.851,0.105-1.691-0.13-2.523-0.702c-0.981-0.675-1.541-1.504-1.681-2.489
			C249.183,111.972,249.552,110.843,250.423,109.577L250.423,109.577z M253.524,118.714v2.446l-5.626,3.102l-1.999-1.374
			L253.524,118.714z"/>
	</g>
	<g>
		<path style="fill-rule:evenodd;clip-rule:evenodd;fill:#FFAE00;" d="M498.349,668.337c14.127,0,25.579,11.451,25.579,25.578
			c0,14.127-11.452,25.579-25.579,25.579c-14.127,0-25.578-11.452-25.578-25.579C472.77,679.788,484.222,668.337,498.349,668.337z"
			/>
		<g>
			<path style="fill-rule:evenodd;clip-rule:evenodd;fill:#FFFFFF;" d="M498.522,678.906c-9.132,0-16.535,6.387-16.535,14.266
				c0,4.73,2.669,8.922,6.778,11.518l-2.329,5.89l5.707-4.243c1.963,0.709,4.117,1.102,6.379,1.102
				c9.132,0,16.534-6.387,16.534-14.266C515.057,685.293,507.654,678.906,498.522,678.906z"/>
			<g>
				<path style="fill-rule:evenodd;clip-rule:evenodd;fill:#013C5C;" d="M491.29,691.211c1.238,0,2.241,1.004,2.241,2.241
					s-1.003,2.24-2.241,2.24c-1.237,0-2.241-1.003-2.241-2.24S490.053,691.211,491.29,691.211z"/>
				<path style="fill-rule:evenodd;clip-rule:evenodd;fill:#013C5C;" d="M498.522,691.211c1.237,0,2.24,1.004,2.24,2.241
					s-1.003,2.24-2.24,2.24c-1.238,0-2.241-1.003-2.241-2.24S497.284,691.211,498.522,691.211z"/>
				<path style="fill-rule:evenodd;clip-rule:evenodd;fill:#013C5C;" d="M505.754,691.211c1.238,0,2.241,1.004,2.241,2.241
					s-1.003,2.24-2.241,2.24c-1.237,0-2.24-1.003-2.24-2.24S504.517,691.211,505.754,691.211z"/>
			</g>
		</g>
	</g>
	<g>
		<polygon style="fill-rule:evenodd;clip-rule:evenodd;fill:#DB9600;" points="96.975,433.428 70.024,452.884 43.075,433.428 
			70.024,413.972 		"/>
		<rect x="50.437" y="417.391" style="fill-rule:evenodd;clip-rule:evenodd;fill:#FFFDFA;" width="39.176" height="47.851"/>
		<g>
			<rect x="56.549" y="423.933" style="fill-rule:evenodd;clip-rule:evenodd;fill:#FFDE96;" width="11.193" height="2.257"/>
			<rect x="56.44" y="428.314" style="fill-rule:evenodd;clip-rule:evenodd;fill:#FFDE96;" width="27.169" height="2.257"/>
			<rect x="56.44" y="432.518" style="fill-rule:evenodd;clip-rule:evenodd;fill:#FFDE96;" width="27.169" height="2.257"/>
			<rect x="56.44" y="436.723" style="fill-rule:evenodd;clip-rule:evenodd;fill:#FFDE96;" width="27.169" height="2.257"/>
			<rect x="56.44" y="440.927" style="fill-rule:evenodd;clip-rule:evenodd;fill:#FFDE96;" width="27.169" height="2.257"/>
			<rect x="56.44" y="445.131" style="fill-rule:evenodd;clip-rule:evenodd;fill:#FFDE96;" width="27.169" height="2.257"/>
			<rect x="56.44" y="449.335" style="fill-rule:evenodd;clip-rule:evenodd;fill:#FFDE96;" width="27.169" height="2.257"/>
		</g>
		<polygon style="fill-rule:evenodd;clip-rule:evenodd;fill:#FFAE00;" points="43.075,465.241 96.975,465.241 96.975,433.428 
			70.024,452.884 43.075,433.428 		"/>
		<polygon style="fill-rule:evenodd;clip-rule:evenodd;fill:#FFCD61;" points="43.075,465.241 96.975,465.241 74.941,449.335 
			65.109,449.335 65.109,449.334 		"/>
	</g>
	<g>
		<path style="fill:#71A9D9;" d="M170.4,412.368l1.171-2.194l-4.63-2.473l-1.173,2.195c-1.388-0.44-2.851-0.673-4.341-0.672v3.761
			c4.554-0.002,8.765,2.949,10.158,7.531c1.706,5.61-1.459,11.541-7.07,13.246l0,0c-1.028,0.313-2.066,0.461-3.088,0.461v3.762
			c0.531-0.001,1.065-0.03,1.601-0.091l0.724,2.381l5.023-1.526l-0.724-2.382c1.822-0.943,3.38-2.244,4.613-3.789l2.196,1.171
			l2.471-4.632l-2.195-1.172c0.598-1.883,0.811-3.902,0.581-5.94l2.381-0.725l-1.527-5.024l-2.381,0.724
			C173.246,415.159,171.945,413.601,170.4,412.368z M161.427,409.225c-0.53,0-1.064,0.03-1.6,0.091l-0.724-2.382l-5.023,1.527
			l0.725,2.382c-1.822,0.942-3.381,2.244-4.613,3.789l-2.195-1.171l-2.472,4.631l2.195,1.172c-0.598,1.883-0.811,3.902-0.58,5.941
			l-2.381,0.724l1.527,5.022l2.381-0.723c0.944,1.821,2.245,3.38,3.79,4.612l-1.171,2.196l4.631,2.471l1.171-2.194
			c1.389,0.44,2.852,0.673,4.341,0.672v-3.762c-4.553,0.002-8.765-2.949-10.158-7.53c-1.706-5.611,1.46-11.542,7.07-13.247
			c1.028-0.313,2.067-0.461,3.088-0.461V409.225z"/>
		<path style="fill:#71A9D9;" d="M154.693,390.31l0.819-1.533l-3.235-1.728l-0.82,1.534c-0.97-0.308-1.992-0.47-3.033-0.469v2.628
			c3.181-0.001,6.124,2.06,7.097,5.262c1.191,3.92-1.02,8.064-4.939,9.255l0,0c-0.718,0.218-1.444,0.322-2.158,0.322v2.627
			c0.371,0,0.744-0.021,1.118-0.064l0.506,1.664l3.509-1.066l-0.505-1.664c1.273-0.659,2.361-1.567,3.222-2.647l1.535,0.818
			l1.727-3.235l-1.534-0.819c0.418-1.315,0.567-2.726,0.406-4.151l1.664-0.506l-1.067-3.51l-1.664,0.506
			C156.682,392.26,155.772,391.171,154.693,390.31z M148.424,388.114c-0.371,0-0.744,0.021-1.118,0.064l-0.506-1.664l-3.509,1.067
			l0.506,1.664c-1.273,0.659-2.362,1.568-3.223,2.648l-1.534-0.818l-1.727,3.236l1.534,0.818c-0.418,1.316-0.567,2.727-0.406,4.151
			l-1.664,0.505l1.066,3.51l1.663-0.506c0.659,1.273,1.568,2.362,2.648,3.223l-0.818,1.534l3.236,1.727l0.818-1.533
			c0.97,0.308,1.992,0.47,3.033,0.469v-2.627c-3.182,0.001-6.124-2.061-7.097-5.262c-1.192-3.92,1.021-8.063,4.94-9.255
			c0.718-0.218,1.444-0.322,2.157-0.322V388.114z"/>
	</g>
	<g>
		<path style="fill:#71A9D9;" d="M714.769,422.758c0.531,0,1.065,0.03,1.601,0.091l0.724-2.382l5.023,1.527l-0.725,2.382
			c1.822,0.942,3.381,2.244,4.613,3.789l2.194-1.172l2.473,4.632l-2.195,1.172c0.599,1.883,0.812,3.902,0.581,5.941l2.381,0.724
			l-1.526,5.022l-2.381-0.724c-0.944,1.822-2.245,3.381-3.79,4.613l1.172,2.196l-4.632,2.471l-1.172-2.194
			c-1.389,0.44-2.852,0.673-4.341,0.672v-3.762c4.554,0.002,8.766-2.949,10.158-7.531c1.706-5.61-1.46-11.541-7.07-13.246
			c-1.027-0.313-2.066-0.461-3.088-0.461V422.758z M705.797,425.901l-1.172-2.194l4.631-2.473l1.173,2.195
			c1.389-0.44,2.852-0.673,4.341-0.672v3.761c-4.554-0.002-8.765,2.949-10.158,7.531c-1.705,5.61,1.46,11.54,7.07,13.246l0,0
			c1.028,0.313,2.066,0.461,3.088,0.461v3.762c-0.53-0.001-1.064-0.03-1.601-0.092l-0.724,2.382l-5.023-1.526l0.725-2.382
			c-1.822-0.943-3.381-2.244-4.612-3.789l-2.196,1.171l-2.472-4.632l2.195-1.172c-0.599-1.883-0.811-3.902-0.581-5.941l-2.381-0.724
			l1.527-5.023l2.381,0.724C702.951,428.692,704.252,427.134,705.797,425.901z"/>
		<path style="fill:#71A9D9;" d="M727.773,401.646c0.371,0.001,0.744,0.021,1.117,0.064l0.507-1.664l3.509,1.067l-0.506,1.664
			c1.272,0.658,2.362,1.568,3.223,2.648l1.534-0.818l1.727,3.235l-1.533,0.818c0.418,1.316,0.566,2.728,0.406,4.151l1.663,0.506
			l-1.066,3.51l-1.664-0.506c-0.659,1.272-1.568,2.362-2.647,3.223l0.818,1.534l-3.235,1.727l-0.818-1.533
			c-0.971,0.308-1.992,0.47-3.033,0.469v-2.627c3.182,0.001,6.124-2.061,7.098-5.262c1.191-3.92-1.021-8.063-4.94-9.255
			c-0.718-0.219-1.443-0.322-2.157-0.322V401.646z M721.504,403.844l-0.818-1.534l3.235-1.727l0.819,1.533
			c0.971-0.308,1.992-0.471,3.033-0.47v2.628c-3.182-0.002-6.124,2.06-7.098,5.262c-1.191,3.92,1.021,8.063,4.939,9.255l0,0
			c0.719,0.218,1.444,0.322,2.158,0.322v2.627c-0.371,0-0.744-0.021-1.118-0.064l-0.506,1.664l-3.51-1.066l0.506-1.664
			c-1.273-0.659-2.361-1.567-3.223-2.647l-1.534,0.818l-1.727-3.236l1.533-0.818c-0.417-1.315-0.566-2.727-0.405-4.151l-1.664-0.505
			l1.067-3.51l1.663,0.505C719.516,405.793,720.425,404.704,721.504,403.844z"/>
	</g>
	<path style="fill-rule:evenodd;clip-rule:evenodd;fill:#71A9D9;" d="M413.711,121.919c1.955,1.131,3.27,3.244,3.27,5.664
		c0,2.42-1.315,4.533-3.27,5.664V121.919L413.711,121.919z M413.711,114.622c5.8,1.458,10.095,6.708,10.095,12.961h3.978
		c0-8.461-6.058-15.504-14.072-17.033V114.622L413.711,114.622z M413.711,104.785c11.17,1.588,19.761,11.189,19.761,22.798h3.696
		c0-13.654-10.239-24.915-23.457-26.527V104.785z M410.441,121.044c1.191,0,2.308,0.318,3.27,0.875v11.328
		c-0.962,0.556-2.078,0.875-3.27,0.875c-3.61,0-6.538-2.928-6.538-6.539C403.903,123.972,406.831,121.044,410.441,121.044
		L410.441,121.044z M413.711,101.056v3.729c-1.067-0.152-2.159-0.232-3.27-0.232v-3.697
		C411.549,100.856,412.64,100.925,413.711,101.056L413.711,101.056z M413.711,110.55v4.072c-1.046-0.263-2.141-0.403-3.27-0.403
		v-3.978C411.56,110.241,412.652,110.348,413.711,110.55z"/>
	<g>
		<rect x="75.6" y="332.572" style="fill:#FFFFFF;" width="33.045" height="3.85"/>
		<path style="fill:#FFFFFF;" d="M103.669,353.79h4.976v-13.425h-4.976v6.572l2.441,2.44l-2.441,2.441V353.79z M75.6,353.79h28.07
			v-1.972v0l-2.441-2.442l2.441-2.441l0,0v0v-6.572H75.6V353.79z"/>
	</g>
	<g>
		<rect x="665.225" y="566.518" style="fill-rule:evenodd;clip-rule:evenodd;fill:#CC3D33;" width="30.211" height="30.211"/>
		<rect x="678.436" y="566.518" style="fill-rule:evenodd;clip-rule:evenodd;fill:#FFFFFF;" width="3.787" height="30.211"/>
		<path style="fill:#FFFFFF;" d="M688.516,555.797c2.458-1.31,4.556-1.53,6.08-1.081c1.559,0.459,2.56,1.577,2.852,3.002
			c0.272,1.327-0.103,2.895-1.263,4.368c-1.345,1.71-3.821,3.35-7.669,4.307v-2.215c2.999-0.821,4.924-2.1,5.969-3.429
			c0.743-0.942,0.998-1.869,0.849-2.601c-0.13-0.635-0.603-1.142-1.347-1.361c-1.237-0.364-3.117-0.022-5.471,1.511V555.797z
			 M688.169,575.029c0.161,0.574-0.174,1.171-0.748,1.332c-0.574,0.161-1.171-0.174-1.332-0.748
			c-0.691-2.449-2.383-5.209-4.533-7.916c-0.119-0.15-0.24-0.3-0.362-0.449c-0.234,0.003-0.472,0.004-0.712,0.003
			c-0.4,0.002-0.792-0.002-1.176-0.012l-0.144,0.185c-2.064,2.673-3.792,5.543-4.631,8.219c-0.177,0.57-0.783,0.889-1.354,0.711
			c-0.569-0.178-0.887-0.783-0.71-1.354c0.816-2.606,2.371-5.339,4.253-7.919c-1.664-0.167-3.149-0.45-4.469-0.82v-2.235
			c1.658,0.519,3.661,0.887,6.047,1.017c0.155-0.19,0.311-0.377,0.468-0.563c-2.011-2.149-4.185-4.154-6.229-5.824
			c-0.097-0.078-0.191-0.154-0.286-0.229v-2.64c0.533,0.337,1.083,0.733,1.647,1.194c2.066,1.688,4.261,3.706,6.301,5.869
			c1.947-2.125,3.976-3.992,5.762-5.379c0.886-0.688,1.74-1.24,2.554-1.674v2.501c-0.398,0.259-0.81,0.552-1.234,0.881
			c-1.739,1.351-3.725,3.185-5.623,5.273c0.179,0.204,0.355,0.409,0.531,0.615c2.494-0.091,4.59-0.414,6.326-0.89v2.215
			c-1.376,0.343-2.928,0.598-4.665,0.737C685.877,569.798,687.461,572.523,688.169,575.029z M672.252,566.261
			c-3.676-1.032-6.051-2.743-7.354-4.504c-1.111-1.503-1.483-3.083-1.248-4.398c0.26-1.451,1.222-2.57,2.736-2.985
			c1.477-0.404,3.503-0.08,5.865,1.413v2.64c-2.317-1.815-4.136-2.291-5.299-1.973c-0.653,0.179-1.068,0.661-1.18,1.286
			c-0.137,0.762,0.123,1.736,0.859,2.732c1.001,1.354,2.815,2.673,5.619,3.554V566.261z"/>
		<rect x="665.225" y="579.729" style="fill-rule:evenodd;clip-rule:evenodd;fill:#FFFFFF;" width="30.211" height="3.788"/>
	</g>
	<g>
		<g>
			<path style="fill-rule:evenodd;clip-rule:evenodd;fill:#FFFFFF;" d="M40.701,776.013c0.324-0.002,0.621-0.088,0.889-0.257
				c0.272-0.17,0.488-0.431,0.65-0.784c0.16-0.354,0.24-0.793,0.24-1.317c0-0.499-0.08-0.925-0.24-1.279
				c-0.162-0.358-0.381-0.634-0.655-0.818c-0.271-0.188-0.564-0.279-0.883-0.283v-1.341c0.302,0.042,0.57,0.122,0.805,0.238
				c0.369,0.184,0.727,0.47,1.076,0.85v-2.747c0-0.383,0.077-0.671,0.229-0.867c0.152-0.198,0.369-0.292,0.649-0.292
				c0.283,0,0.501,0.09,0.652,0.271c0.154,0.179,0.23,0.442,0.23,0.792v8.209c0,0.355-0.082,0.621-0.245,0.798
				c-0.165,0.178-0.377,0.265-0.638,0.265c-0.253,0-0.464-0.088-0.628-0.274c-0.167-0.182-0.25-0.447-0.25-0.788v-0.185
				c-0.25,0.289-0.496,0.519-0.739,0.699c-0.243,0.18-0.505,0.315-0.792,0.41c-0.113,0.036-0.23,0.066-0.351,0.088V776.013z
				 M38.922,773.654c0,0.503,0.078,0.932,0.235,1.286c0.157,0.356,0.372,0.621,0.643,0.8c0.272,0.183,0.57,0.273,0.894,0.273h0.006
				v1.386c-0.184,0.033-0.376,0.05-0.578,0.05c-0.446,0-0.859-0.093-1.237-0.281c-0.379-0.188-0.709-0.457-0.986-0.809
				c-0.278-0.346-0.488-0.761-0.631-1.234c-0.145-0.472-0.215-0.983-0.215-1.534c0-1.162,0.284-2.068,0.852-2.72
				c0.569-0.649,1.316-0.975,2.243-0.975c0.195,0,0.379,0.013,0.552,0.037v1.341h-0.021c-0.34,0-0.646,0.096-0.914,0.287
				c-0.267,0.193-0.475,0.474-0.622,0.835C38.996,772.754,38.922,773.177,38.922,773.654z"/>
			<path style="fill-rule:evenodd;clip-rule:evenodd;fill:#FFFFFF;" d="M49.453,773.065h1.687c-0.044-0.636-0.216-1.112-0.516-1.427
				c-0.296-0.315-0.688-0.474-1.171-0.475v-1.295h0.058c0.728,0,1.351,0.15,1.869,0.461c0.523,0.306,0.912,0.701,1.172,1.188
				c0.259,0.485,0.386,0.983,0.386,1.487c0,0.466-0.134,0.773-0.402,0.911c-0.269,0.138-0.644,0.207-1.132,0.207h-1.952V773.065
				L49.453,773.065z M49.453,777.445v-1.235c0.046,0.003,0.092,0.005,0.139,0.005c0.222,0,0.426-0.024,0.61-0.076
				c0.184-0.05,0.36-0.137,0.534-0.248c0.174-0.11,0.333-0.229,0.479-0.356c0.145-0.128,0.332-0.301,0.564-0.517
				c0.096-0.083,0.232-0.126,0.409-0.126c0.191,0,0.344,0.054,0.464,0.158c0.118,0.103,0.178,0.253,0.178,0.441
				c0,0.17-0.066,0.364-0.197,0.592c-0.133,0.225-0.331,0.441-0.599,0.648c-0.263,0.206-0.598,0.375-1.001,0.516
				c-0.402,0.134-0.864,0.201-1.388,0.201C49.581,777.448,49.516,777.447,49.453,777.445z M47.766,773.065h1.687v1.058h-1.687
				c0.003,0.423,0.089,0.793,0.254,1.116c0.166,0.325,0.386,0.567,0.663,0.729c0.235,0.143,0.491,0.223,0.769,0.242v1.235
				c-1.103-0.035-1.968-0.376-2.596-1.019c-0.664-0.681-0.996-1.606-0.996-2.771c0-0.552,0.082-1.063,0.246-1.534
				c0.165-0.469,0.403-0.874,0.716-1.21c0.314-0.334,0.699-0.592,1.16-0.773c0.442-0.173,0.933-0.261,1.47-0.268v1.295h-0.005
				c-0.462,0-0.844,0.158-1.14,0.478C48.009,771.963,47.828,772.438,47.766,773.065z"/>
			<path style="fill-rule:evenodd;clip-rule:evenodd;fill:#FFFFFF;" d="M60.5,775.018c0,0.51-0.125,0.95-0.375,1.315
				c-0.251,0.368-0.62,0.646-1.108,0.834c-0.488,0.188-1.083,0.281-1.782,0.281c-0.669,0-1.241-0.101-1.719-0.305
				c-0.479-0.203-0.829-0.464-1.058-0.767c-0.226-0.308-0.341-0.616-0.341-0.925c0-0.205,0.073-0.38,0.219-0.524
				c0.146-0.146,0.329-0.221,0.553-0.221c0.194,0,0.345,0.05,0.45,0.146c0.104,0.092,0.205,0.228,0.3,0.399
				c0.19,0.333,0.418,0.58,0.684,0.741c0.267,0.166,0.63,0.247,1.089,0.247c0.371,0,0.676-0.083,0.917-0.247
				c0.238-0.166,0.357-0.354,0.357-0.568c0-0.328-0.125-0.567-0.371-0.719c-0.248-0.147-0.656-0.294-1.226-0.428
				c-0.64-0.16-1.162-0.323-1.563-0.501c-0.401-0.176-0.723-0.405-0.964-0.691c-0.241-0.289-0.361-0.638-0.361-1.057
				c0-0.372,0.11-0.726,0.334-1.061c0.222-0.329,0.551-0.592,0.984-0.791c0.436-0.198,0.959-0.296,1.571-0.296
				c0.483,0,0.915,0.049,1.299,0.148c0.385,0.101,0.705,0.234,0.963,0.404c0.256,0.167,0.451,0.353,0.585,0.559
				c0.134,0.204,0.202,0.403,0.202,0.599c0,0.214-0.072,0.39-0.215,0.524c-0.143,0.134-0.348,0.205-0.61,0.205
				c-0.191,0-0.354-0.055-0.488-0.162c-0.133-0.108-0.288-0.272-0.46-0.492c-0.14-0.181-0.306-0.329-0.497-0.438
				c-0.192-0.108-0.451-0.165-0.779-0.165c-0.336,0-0.615,0.076-0.837,0.221c-0.223,0.14-0.335,0.319-0.335,0.529
				c0,0.199,0.083,0.358,0.247,0.482c0.165,0.127,0.382,0.23,0.661,0.313c0.276,0.081,0.659,0.18,1.145,0.3
				c0.578,0.141,1.049,0.306,1.416,0.503c0.367,0.195,0.643,0.426,0.831,0.693C60.407,774.371,60.5,774.676,60.5,775.018z"/>
			<path style="fill-rule:evenodd;clip-rule:evenodd;fill:#FFFFFF;" d="M63.936,770.936v5.382c0,0.373-0.088,0.653-0.265,0.845
				c-0.176,0.192-0.402,0.285-0.675,0.285c-0.273,0-0.495-0.095-0.665-0.292c-0.171-0.195-0.254-0.477-0.254-0.838v-5.324
				c0-0.367,0.083-0.648,0.254-0.831c0.17-0.188,0.392-0.28,0.665-0.28c0.273,0,0.498,0.093,0.675,0.28
				C63.848,770.346,63.936,770.605,63.936,770.936L63.936,770.936z M63.017,769.017c-0.26,0-0.481-0.082-0.664-0.238
				c-0.186-0.159-0.276-0.385-0.276-0.676c0-0.263,0.094-0.482,0.283-0.651c0.188-0.173,0.406-0.256,0.657-0.256
				c0.239,0,0.454,0.076,0.64,0.23c0.186,0.158,0.279,0.383,0.279,0.678c0,0.286-0.091,0.51-0.271,0.674
				C63.482,768.933,63.266,769.017,63.017,769.017z"/>
			<path style="fill-rule:evenodd;clip-rule:evenodd;fill:#FFFFFF;" d="M69.102,775.894c0.303-0.003,0.59-0.086,0.858-0.247
				c0.275-0.169,0.5-0.417,0.671-0.752c0.175-0.334,0.261-0.738,0.261-1.215c0-0.761-0.168-1.352-0.502-1.773
				c-0.328-0.417-0.757-0.626-1.288-0.634v-1.33c0.286,0.048,0.547,0.133,0.781,0.255c0.386,0.201,0.744,0.521,1.078,0.95v-0.252
				c0-0.32,0.078-0.571,0.238-0.747c0.158-0.179,0.363-0.267,0.611-0.267c0.36,0,0.598,0.119,0.717,0.352
				c0.118,0.231,0.177,0.567,0.177,1.012v5.406c0,0.616-0.064,1.15-0.198,1.596c-0.131,0.446-0.341,0.812-0.634,1.104
				c-0.29,0.288-0.67,0.508-1.141,0.648c-0.444,0.13-0.986,0.201-1.629,0.209v-1.296c0.407-0.013,0.73-0.078,0.968-0.199
				c0.267-0.132,0.451-0.32,0.56-0.562c0.107-0.243,0.166-0.501,0.185-0.772c0.018-0.275,0.034-0.718,0.044-1.326
				c-0.288,0.397-0.619,0.703-0.995,0.911c-0.228,0.127-0.481,0.216-0.762,0.266V775.894z M67.312,773.606
				c0,0.752,0.164,1.324,0.494,1.71c0.33,0.384,0.756,0.578,1.279,0.578h0.017v1.336c-0.181,0.032-0.373,0.049-0.577,0.049
				c-0.622,0-1.167-0.159-1.633-0.479c-0.466-0.315-0.823-0.762-1.072-1.336c-0.251-0.572-0.376-1.233-0.376-1.986
				c0-0.555,0.077-1.06,0.229-1.509c0.153-0.451,0.369-0.831,0.65-1.141c0.283-0.31,0.608-0.541,0.977-0.699
				c0.367-0.153,0.772-0.233,1.213-0.233c0.207,0,0.403,0.017,0.589,0.048v1.33h-0.031c-0.532,0-0.96,0.2-1.278,0.607
				C67.471,772.284,67.312,772.856,67.312,773.606L67.312,773.606z M69.102,778.913v1.296l-0.126,0.001
				c-0.64,0-1.215-0.09-1.719-0.27c-0.504-0.179-0.893-0.412-1.166-0.694c-0.271-0.286-0.407-0.574-0.407-0.878
				c0-0.228,0.077-0.41,0.231-0.552c0.154-0.147,0.339-0.218,0.558-0.218c0.273,0,0.512,0.12,0.717,0.36
				c0.099,0.123,0.202,0.249,0.31,0.373c0.107,0.122,0.225,0.231,0.355,0.321c0.128,0.089,0.285,0.154,0.466,0.196
				c0.181,0.043,0.391,0.065,0.627,0.065L69.102,778.913z"/>
			<path style="fill-rule:evenodd;clip-rule:evenodd;fill:#FFFFFF;" d="M76.278,770.91v0.228c0.327-0.435,0.685-0.752,1.074-0.951
				c0.386-0.202,0.834-0.304,1.338-0.304c0.491,0,0.93,0.106,1.316,0.317c0.384,0.215,0.674,0.518,0.865,0.908
				c0.122,0.228,0.201,0.475,0.238,0.735c0.037,0.266,0.056,0.601,0.056,1.009v3.466c0,0.373-0.085,0.653-0.255,0.845
				c-0.171,0.192-0.393,0.285-0.665,0.285c-0.278,0-0.502-0.095-0.675-0.292c-0.172-0.195-0.258-0.477-0.258-0.838v-3.103
				c0-0.61-0.085-1.083-0.256-1.409c-0.17-0.324-0.511-0.487-1.021-0.487c-0.331,0-0.634,0.102-0.906,0.297
				c-0.273,0.194-0.472,0.468-0.6,0.814c-0.09,0.281-0.136,0.8-0.136,1.556v2.333c0,0.375-0.088,0.661-0.262,0.849
				c-0.176,0.188-0.402,0.281-0.679,0.281c-0.268,0-0.488-0.095-0.661-0.292c-0.173-0.195-0.258-0.477-0.258-0.838v-5.382
				c0-0.353,0.076-0.618,0.231-0.793c0.155-0.173,0.365-0.261,0.633-0.261c0.163,0,0.312,0.036,0.443,0.114
				c0.131,0.078,0.238,0.192,0.317,0.349C76.238,770.5,76.278,770.688,76.278,770.91z"/>
			<path style="fill-rule:evenodd;clip-rule:evenodd;fill:#FFFFFF;" d="M86.262,773.065h1.688c-0.047-0.636-0.219-1.112-0.516-1.427
				c-0.296-0.315-0.688-0.474-1.171-0.475v-1.295h0.058c0.727,0,1.35,0.15,1.87,0.461c0.52,0.306,0.911,0.701,1.17,1.188
				c0.258,0.485,0.388,0.983,0.388,1.487c0,0.466-0.135,0.773-0.402,0.911c-0.269,0.138-0.644,0.207-1.132,0.207h-1.952V773.065
				L86.262,773.065z M86.262,777.445v-1.235c0.046,0.003,0.092,0.005,0.139,0.005c0.224,0,0.426-0.024,0.61-0.076
				c0.185-0.05,0.361-0.137,0.536-0.248c0.173-0.11,0.332-0.229,0.477-0.356c0.146-0.128,0.334-0.301,0.565-0.517
				c0.097-0.083,0.233-0.126,0.409-0.126c0.192,0,0.345,0.054,0.463,0.158c0.118,0.103,0.179,0.253,0.179,0.441
				c0,0.17-0.066,0.364-0.2,0.592c-0.131,0.225-0.331,0.441-0.597,0.648c-0.263,0.206-0.598,0.375-1.001,0.516
				c-0.401,0.134-0.866,0.201-1.387,0.201C86.391,777.448,86.326,777.447,86.262,777.445z M84.575,773.065h1.688v1.058h-1.688
				c0.003,0.423,0.088,0.793,0.254,1.116c0.166,0.325,0.387,0.567,0.66,0.729c0.237,0.143,0.495,0.223,0.773,0.242v1.235
				c-1.103-0.035-1.967-0.376-2.596-1.019c-0.662-0.681-0.995-1.606-0.995-2.771c0-0.552,0.084-1.063,0.246-1.534
				c0.163-0.469,0.403-0.874,0.717-1.21c0.313-0.334,0.698-0.592,1.157-0.773c0.445-0.173,0.932-0.261,1.471-0.268v1.295h-0.005
				c-0.463,0-0.845,0.158-1.142,0.478C84.819,771.963,84.638,772.438,84.575,773.065z"/>
			<path style="fill-rule:evenodd;clip-rule:evenodd;fill:#FFFFFF;" d="M94.536,776.013c0.325-0.002,0.62-0.088,0.89-0.257
				c0.268-0.17,0.485-0.431,0.647-0.784c0.162-0.354,0.243-0.793,0.243-1.317c0-0.499-0.081-0.925-0.243-1.279
				c-0.162-0.358-0.38-0.634-0.655-0.818c-0.267-0.187-0.562-0.279-0.882-0.283v-1.341c0.303,0.043,0.57,0.122,0.803,0.238
				c0.369,0.184,0.727,0.47,1.078,0.85v-2.747c0-0.383,0.077-0.671,0.229-0.867c0.152-0.198,0.368-0.292,0.652-0.292
				c0.281,0,0.497,0.09,0.65,0.271c0.152,0.179,0.229,0.442,0.229,0.792v8.209c0,0.355-0.081,0.621-0.245,0.798
				c-0.164,0.178-0.376,0.265-0.633,0.265c-0.255,0-0.465-0.088-0.632-0.274c-0.166-0.182-0.249-0.447-0.249-0.788v-0.185
				c-0.251,0.289-0.496,0.519-0.741,0.699c-0.243,0.18-0.507,0.315-0.789,0.41c-0.113,0.036-0.23,0.066-0.351,0.088V776.013z
				 M92.756,773.654c0,0.503,0.079,0.932,0.236,1.286c0.157,0.356,0.371,0.621,0.644,0.8c0.273,0.183,0.57,0.273,0.892,0.273h0.008
				v1.386c-0.184,0.033-0.377,0.05-0.58,0.05c-0.445,0-0.859-0.093-1.238-0.281c-0.378-0.188-0.707-0.457-0.984-0.809
				c-0.278-0.346-0.488-0.761-0.631-1.234c-0.143-0.472-0.215-0.983-0.215-1.534c0-1.162,0.282-2.068,0.852-2.72
				c0.569-0.649,1.316-0.975,2.244-0.975c0.195,0,0.379,0.013,0.552,0.037v1.341h-0.023c-0.339,0-0.644,0.096-0.912,0.287
				c-0.27,0.193-0.476,0.474-0.625,0.835C92.829,772.754,92.756,773.177,92.756,773.654z"/>
			<path style="fill-rule:evenodd;clip-rule:evenodd;fill:#FFFFFF;" d="M107.121,776.012l0.061,0.001
				c0.467,0,0.872-0.206,1.21-0.612c0.34-0.406,0.507-0.989,0.507-1.746c0-0.495-0.069-0.914-0.21-1.272
				c-0.141-0.352-0.341-0.629-0.601-0.822c-0.257-0.191-0.562-0.287-0.907-0.287l-0.061,0.001v-1.34
				c0.172-0.025,0.357-0.039,0.553-0.039c0.617,0,1.159,0.148,1.625,0.439c0.466,0.292,0.828,0.717,1.083,1.277
				c0.259,0.552,0.386,1.215,0.386,1.977c0,0.567-0.071,1.082-0.214,1.552c-0.143,0.469-0.352,0.88-0.624,1.224
				c-0.272,0.345-0.603,0.614-0.992,0.802c-0.388,0.188-0.816,0.281-1.285,0.281c-0.184,0-0.362-0.014-0.532-0.042V776.012z
				 M105.342,773.706c0,0.742,0.169,1.312,0.506,1.708c0.327,0.383,0.75,0.583,1.272,0.598v1.395
				c-0.094-0.015-0.186-0.034-0.276-0.059c-0.251-0.068-0.466-0.159-0.644-0.272c-0.177-0.109-0.328-0.224-0.456-0.344
				c-0.122-0.117-0.288-0.294-0.491-0.531v0.185c0,0.351-0.084,0.615-0.254,0.798c-0.166,0.178-0.381,0.265-0.64,0.265
				c-0.263,0-0.474-0.087-0.631-0.265c-0.156-0.183-0.235-0.447-0.235-0.798v-8.13c0-0.372,0.077-0.658,0.229-0.852
				c0.155-0.196,0.365-0.29,0.638-0.29c0.287,0,0.506,0.091,0.662,0.277c0.154,0.184,0.233,0.445,0.233,0.785v2.844
				c0.349-0.365,0.706-0.643,1.068-0.834c0.232-0.124,0.497-0.208,0.798-0.252v1.34c-0.33,0.011-0.624,0.106-0.886,0.286
				c-0.277,0.193-0.497,0.474-0.656,0.841C105.419,772.769,105.342,773.202,105.342,773.706z"/>
			<path style="fill-rule:evenodd;clip-rule:evenodd;fill:#FFFFFF;" d="M113.795,777.682l0.171-0.416l-2.292-5.768
				c-0.14-0.334-0.212-0.575-0.212-0.721c0-0.158,0.042-0.312,0.125-0.447c0.081-0.137,0.193-0.244,0.337-0.325
				c0.142-0.082,0.292-0.122,0.447-0.122c0.268,0,0.47,0.084,0.606,0.254c0.136,0.171,0.259,0.415,0.362,0.733l1.575,4.582
				l1.491-4.262c0.119-0.347,0.228-0.614,0.321-0.811c0.095-0.195,0.198-0.327,0.305-0.394c0.105-0.069,0.256-0.103,0.452-0.103
				c0.142,0,0.276,0.036,0.405,0.114c0.131,0.072,0.229,0.174,0.299,0.302c0.071,0.127,0.106,0.261,0.106,0.401
				c-0.016,0.082-0.048,0.207-0.087,0.365c-0.041,0.163-0.093,0.326-0.152,0.487l-2.427,6.353c-0.209,0.563-0.413,0.997-0.614,1.314
				c-0.198,0.32-0.462,0.565-0.793,0.734c-0.331,0.171-0.774,0.256-1.333,0.256c-0.545,0-0.954-0.061-1.227-0.177
				c-0.273-0.117-0.409-0.333-0.409-0.647c0-0.215,0.064-0.378,0.194-0.495c0.13-0.12,0.321-0.175,0.578-0.175
				c0.098,0,0.197,0.014,0.293,0.042c0.118,0.026,0.22,0.039,0.307,0.039c0.213,0,0.381-0.03,0.503-0.096
				c0.124-0.06,0.234-0.173,0.331-0.329C113.555,778.217,113.668,777.985,113.795,777.682z"/>
		</g>
		<g>
			<path style="fill-rule:evenodd;clip-rule:evenodd;fill:#FFFFFF;" d="M155.661,767.525h0.555v-0.698
				c0-0.727,0.092-1.304,0.279-1.729c0.179-0.43,0.494-0.742,0.934-0.938c0.441-0.197,1.041-0.294,1.811-0.294
				c1.35,0,2.033,0.332,2.033,0.995c0,0.213-0.075,0.397-0.216,0.554c-0.141,0.152-0.307,0.231-0.503,0.231
				c-0.09,0-0.247-0.017-0.468-0.054c-0.22-0.033-0.406-0.05-0.561-0.05c-0.421,0-0.689,0.123-0.807,0.368
				c-0.12,0.249-0.181,0.601-0.181,1.058v0.556h0.571c0.886,0,1.33,0.268,1.33,0.8c0,0.378-0.119,0.621-0.354,0.722
				c-0.237,0.102-0.561,0.159-0.976,0.159h-0.571v6.147c0,0.458-0.112,0.809-0.326,1.053c-0.217,0.241-0.5,0.357-0.849,0.357
				c-0.327,0-0.602-0.116-0.819-0.357c-0.218-0.244-0.327-0.595-0.327-1.053v-6.147h-0.639c-0.346,0-0.609-0.082-0.8-0.242
				c-0.186-0.154-0.282-0.355-0.282-0.604C154.495,767.803,154.887,767.525,155.661,767.525z"/>
			<path style="fill-rule:evenodd;clip-rule:evenodd;fill:#FFFFFF;" d="M163.958,773.411v1.942c0,0.468-0.109,0.825-0.331,1.06
				c-0.222,0.234-0.5,0.35-0.845,0.35c-0.329,0-0.607-0.116-0.822-0.355c-0.216-0.239-0.325-0.589-0.325-1.055v-6.465
				c0-1.048,0.376-1.566,1.129-1.566c0.386,0,0.665,0.122,0.836,0.364c0.173,0.241,0.264,0.604,0.281,1.081
				c0.278-0.477,0.564-0.84,0.855-1.081c0.293-0.242,0.683-0.364,1.171-0.364c0.486,0,0.961,0.122,1.419,0.364
				c0.463,0.241,0.688,0.567,0.688,0.968c0,0.288-0.095,0.518-0.292,0.705c-0.198,0.183-0.404,0.274-0.636,0.274
				c-0.083,0-0.288-0.052-0.615-0.153c-0.326-0.109-0.613-0.161-0.866-0.161c-0.338,0-0.618,0.092-0.831,0.273
				c-0.215,0.176-0.384,0.44-0.504,0.792c-0.117,0.352-0.199,0.771-0.246,1.257C163.979,772.124,163.958,772.716,163.958,773.411z"
				/>
			<path style="fill-rule:evenodd;clip-rule:evenodd;fill:#FFFFFF;" d="M172.896,771.295h2.105
				c-0.061-0.794-0.271-1.389-0.641-1.781c-0.371-0.393-0.861-0.591-1.464-0.592v-1.615l0.074-0.001c0.906,0,1.681,0.188,2.33,0.575
				c0.651,0.381,1.139,0.875,1.462,1.482c0.322,0.605,0.486,1.227,0.486,1.855c0,0.581-0.167,0.965-0.503,1.137
				c-0.334,0.173-0.802,0.259-1.412,0.259h-2.436V771.295L172.896,771.295z M172.896,776.76v-1.542
				c0.058,0.004,0.116,0.007,0.174,0.007c0.278,0,0.531-0.031,0.761-0.096c0.228-0.063,0.454-0.17,0.666-0.31
				c0.218-0.138,0.417-0.286,0.599-0.445c0.18-0.158,0.418-0.374,0.703-0.644c0.121-0.104,0.295-0.157,0.514-0.157
				c0.236,0,0.429,0.068,0.576,0.198c0.147,0.129,0.22,0.315,0.22,0.552c0,0.211-0.079,0.453-0.246,0.737
				c-0.166,0.28-0.413,0.551-0.74,0.809c-0.333,0.259-0.752,0.469-1.254,0.645c-0.503,0.167-1.078,0.251-1.731,0.251
				C173.057,776.764,172.976,776.763,172.896,776.76z M170.79,771.295h2.106v1.319h-2.106c0.008,0.527,0.112,0.99,0.318,1.393
				c0.208,0.406,0.479,0.708,0.829,0.909c0.292,0.179,0.612,0.277,0.959,0.302v1.542c-1.378-0.044-2.458-0.469-3.236-1.272
				c-0.829-0.85-1.245-2.003-1.245-3.459c0-0.688,0.102-1.326,0.308-1.913c0.203-0.585,0.501-1.092,0.892-1.511
				c0.39-0.417,0.875-0.738,1.449-0.965c0.549-0.216,1.161-0.326,1.832-0.333v1.615h-0.005c-0.578,0-1.054,0.196-1.429,0.596
				C171.094,769.919,170.869,770.511,170.79,771.295z"/>
			<path style="fill-rule:evenodd;clip-rule:evenodd;fill:#FFFFFF;" d="M183.249,771.295h2.105c-0.06-0.794-0.272-1.389-0.639-1.781
				c-0.373-0.393-0.857-0.591-1.466-0.592v-1.616h0.07c0.911,0,1.689,0.188,2.338,0.575c0.647,0.381,1.138,0.875,1.46,1.482
				c0.324,0.605,0.483,1.227,0.483,1.855c0,0.581-0.169,0.965-0.503,1.137c-0.332,0.173-0.801,0.259-1.411,0.259h-2.438V771.295
				L183.249,771.295z M183.249,776.76v-1.542c0.057,0.004,0.115,0.007,0.174,0.007c0.278,0,0.53-0.031,0.759-0.096
				c0.233-0.063,0.456-0.17,0.668-0.31c0.218-0.138,0.417-0.286,0.599-0.445c0.183-0.158,0.42-0.374,0.708-0.644
				c0.118-0.104,0.282-0.157,0.507-0.157c0.24,0,0.434,0.068,0.581,0.198c0.144,0.129,0.219,0.315,0.219,0.552
				c0,0.211-0.081,0.453-0.243,0.737c-0.167,0.28-0.417,0.551-0.749,0.809c-0.33,0.259-0.747,0.469-1.248,0.645
				c-0.506,0.167-1.081,0.251-1.733,0.251C183.41,776.764,183.329,776.763,183.249,776.76z M181.145,771.295h2.104v1.319h-2.104
				c0.005,0.527,0.113,0.99,0.318,1.393c0.208,0.406,0.483,0.708,0.825,0.909c0.296,0.179,0.616,0.277,0.961,0.302v1.542
				c-1.374-0.044-2.454-0.469-3.236-1.272c-0.829-0.85-1.242-2.003-1.242-3.459c0-0.688,0.105-1.326,0.301-1.913
				c0.209-0.585,0.506-1.092,0.897-1.511c0.388-0.417,0.872-0.738,1.448-0.965c0.554-0.216,1.165-0.326,1.831-0.334v1.616h-0.005
				c-0.579,0-1.052,0.196-1.424,0.596C181.45,769.919,181.22,770.511,181.145,771.295z"/>
			<path style="fill-rule:evenodd;clip-rule:evenodd;fill:#FFFFFF;" d="M196.02,772.001c0-0.614-0.089-1.138-0.278-1.578
				c-0.188-0.44-0.443-0.781-0.777-1.012c-0.331-0.238-0.698-0.352-1.101-0.352l-0.063,0.001v-1.669
				c0.202-0.034,0.413-0.052,0.631-0.052c0.715,0,1.372,0.185,1.975,0.552c0.602,0.371,1.077,0.908,1.427,1.617
				c0.345,0.707,0.52,1.545,0.52,2.521c0,0.713-0.102,1.367-0.301,1.968c-0.202,0.596-0.476,1.102-0.829,1.505
				c-0.352,0.403-0.766,0.721-1.244,0.938c-0.481,0.218-0.999,0.324-1.548,0.324c-0.222,0-0.433-0.015-0.631-0.045v-1.748
				l0.063,0.001c0.387,0,0.743-0.112,1.071-0.34c0.329-0.223,0.593-0.555,0.79-1.006C195.921,773.178,196.02,772.636,196.02,772.001
				z M193.801,769.06c-0.611,0.016-1.133,0.266-1.557,0.755c-0.44,0.504-0.662,1.247-0.662,2.23c0,0.922,0.219,1.64,0.658,2.154
				c0.42,0.499,0.941,0.755,1.561,0.772v1.748c-0.393-0.059-0.74-0.178-1.039-0.354c-0.453-0.266-0.882-0.653-1.291-1.174v3.488
				c0,1.022-0.374,1.531-1.111,1.531c-0.439,0-0.727-0.132-0.872-0.396c-0.142-0.263-0.209-0.65-0.209-1.154v-10.022
				c0-0.442,0.097-0.772,0.285-0.989c0.195-0.217,0.458-0.326,0.795-0.326c0.327,0,0.595,0.109,0.801,0.334
				c0.208,0.225,0.31,0.548,0.31,0.965v0.281c0.442-0.537,0.893-0.935,1.364-1.187c0.296-0.159,0.619-0.267,0.965-0.325V769.06z"/>
			<path style="fill-rule:evenodd;clip-rule:evenodd;fill:#FFFFFF;" d="M202.542,768.638v6.716c0,0.466-0.113,0.815-0.333,1.055
				c-0.221,0.239-0.499,0.355-0.842,0.355c-0.34,0-0.613-0.119-0.83-0.364c-0.213-0.244-0.317-0.595-0.317-1.046v-6.644
				c0-0.458,0.104-0.809,0.317-1.036c0.216-0.234,0.489-0.351,0.83-0.351c0.343,0,0.622,0.116,0.842,0.351
				C202.429,767.9,202.542,768.225,202.542,768.638L202.542,768.638z M201.396,766.242c-0.327,0-0.608-0.104-0.833-0.298
				c-0.227-0.199-0.343-0.48-0.343-0.843c0-0.329,0.119-0.602,0.353-0.813c0.234-0.215,0.509-0.319,0.824-0.319
				c0.296,0,0.565,0.095,0.798,0.286c0.232,0.197,0.348,0.477,0.348,0.847c0,0.357-0.114,0.636-0.34,0.84
				C201.976,766.138,201.704,766.242,201.396,766.242z"/>
			<path style="fill-rule:evenodd;clip-rule:evenodd;fill:#FFFFFF;" d="M210.728,775.7l-2.054-3.368l-1.26,1.193v1.847
				c0,0.447-0.113,0.79-0.346,1.034c-0.242,0.241-0.512,0.357-0.813,0.357c-0.36,0-0.641-0.116-0.845-0.355
				c-0.206-0.239-0.307-0.589-0.307-1.055v-9.903c0-0.518,0.095-0.91,0.294-1.178c0.204-0.271,0.486-0.405,0.857-0.405
				c0.356,0,0.637,0.117,0.849,0.365c0.208,0.245,0.31,0.604,0.31,1.081v5.634l2.615-2.743c0.325-0.338,0.569-0.571,0.736-0.697
				c0.173-0.124,0.381-0.185,0.623-0.185c0.292,0,0.53,0.089,0.727,0.276c0.189,0.185,0.289,0.414,0.289,0.692
				c0,0.34-0.315,0.796-0.947,1.363l-1.23,1.128l2.379,3.746c0.181,0.277,0.305,0.49,0.378,0.632
				c0.079,0.144,0.115,0.284,0.115,0.411c0,0.373-0.098,0.661-0.303,0.876c-0.201,0.21-0.469,0.316-0.793,0.316
				c-0.285,0-0.504-0.074-0.657-0.227C211.196,776.383,210.988,776.102,210.728,775.7z"/>
			<path style="fill-rule:evenodd;clip-rule:evenodd;fill:#FFFFFF;" d="M216.469,776.764c-0.351,0-0.653-0.11-0.907-0.341
				c-0.256-0.225-0.389-0.542-0.389-0.955c0-0.342,0.125-0.641,0.367-0.891c0.248-0.248,0.55-0.371,0.904-0.371
				c0.357,0,0.66,0.123,0.914,0.367c0.251,0.246,0.379,0.544,0.379,0.895c0,0.407-0.127,0.727-0.379,0.954
				C217.104,776.653,216.81,776.764,216.469,776.764z"/>
			<path style="fill-rule:evenodd;clip-rule:evenodd;fill:#FFFFFF;" d="M228.715,773.889c0,0.291-0.089,0.599-0.263,0.928
				c-0.172,0.331-0.435,0.642-0.787,0.942c-0.354,0.297-0.804,0.536-1.339,0.715c-0.541,0.184-1.15,0.273-1.824,0.273
				c-1.437,0-2.554-0.419-3.361-1.256c-0.804-0.833-1.209-1.956-1.209-3.36c0-0.959,0.186-1.8,0.555-2.532
				c0.366-0.729,0.903-1.295,1.602-1.692c0.695-0.402,1.529-0.601,2.498-0.601c0.601,0,1.15,0.086,1.654,0.262
				c0.505,0.178,0.927,0.399,1.277,0.684c0.348,0.274,0.615,0.571,0.801,0.886c0.184,0.317,0.275,0.61,0.275,0.882
				c0,0.28-0.103,0.516-0.313,0.708c-0.205,0.191-0.456,0.286-0.75,0.286c-0.195,0-0.358-0.049-0.483-0.148
				c-0.125-0.098-0.27-0.257-0.426-0.481c-0.286-0.429-0.581-0.754-0.89-0.97c-0.308-0.215-0.702-0.32-1.177-0.32
				c-0.687,0-1.239,0.266-1.659,0.803c-0.418,0.536-0.633,1.266-0.633,2.197c0,0.437,0.052,0.84,0.164,1.206
				c0.106,0.363,0.263,0.675,0.469,0.936c0.198,0.254,0.451,0.452,0.737,0.583c0.29,0.136,0.61,0.203,0.954,0.203
				c0.46,0,0.863-0.111,1.195-0.324c0.333-0.218,0.625-0.542,0.882-0.988c0.141-0.262,0.296-0.465,0.46-0.611
				c0.163-0.148,0.363-0.22,0.6-0.22c0.289,0,0.521,0.107,0.708,0.322C228.617,773.418,228.714,773.647,228.715,773.889z"/>
			<path style="fill-rule:evenodd;clip-rule:evenodd;fill:#FFFFFF;" d="M237.104,772.045c0-0.949-0.213-1.685-0.629-2.213
				c-0.412-0.524-0.964-0.789-1.665-0.793v-1.717c0.703,0.002,1.332,0.118,1.902,0.337c0.571,0.227,1.062,0.549,1.471,0.972
				c0.411,0.422,0.719,0.92,0.93,1.499c0.216,0.579,0.32,1.216,0.32,1.915c0,0.689-0.104,1.328-0.322,1.909
				c-0.217,0.589-0.531,1.089-0.939,1.507c-0.408,0.42-0.893,0.744-1.46,0.972c-0.565,0.22-1.199,0.33-1.902,0.331v-1.728
				c0.701-0.005,1.254-0.267,1.665-0.795C236.891,773.71,237.104,772.977,237.104,772.045z M234.81,769.039h-0.017
				c-0.451,0-0.851,0.117-1.198,0.352c-0.342,0.239-0.611,0.585-0.801,1.042c-0.183,0.462-0.278,1-0.278,1.612
				c0,0.607,0.092,1.136,0.278,1.59c0.184,0.453,0.447,0.799,0.788,1.041c0.345,0.24,0.749,0.359,1.212,0.359h0.017v1.728h-0.017
				c-0.698,0-1.333-0.11-1.896-0.341c-0.558-0.225-1.044-0.548-1.46-0.972c-0.408-0.424-0.722-0.923-0.929-1.497
				c-0.216-0.576-0.324-1.213-0.324-1.909c0-0.705,0.107-1.348,0.329-1.935c0.21-0.582,0.521-1.082,0.92-1.496
				c0.404-0.413,0.893-0.733,1.463-0.958c0.577-0.225,1.206-0.334,1.896-0.334h0.017V769.039z"/>
			<path style="fill-rule:evenodd;clip-rule:evenodd;fill:#FFFFFF;" d="M248.989,772.214v3.086c0,0.488-0.112,0.855-0.334,1.1
				c-0.219,0.245-0.513,0.364-0.877,0.364c-0.351,0-0.636-0.119-0.854-0.364c-0.219-0.244-0.329-0.611-0.329-1.1v-3.7
				c0-0.587-0.021-1.032-0.06-1.359c-0.039-0.325-0.147-0.59-0.324-0.796c-0.174-0.208-0.454-0.308-0.833-0.308
				c-0.759,0-1.259,0.258-1.498,0.778c-0.242,0.523-0.361,1.271-0.361,2.247v3.138c0,0.484-0.113,0.846-0.334,1.094
				c-0.213,0.247-0.503,0.37-0.86,0.37c-0.35,0-0.637-0.123-0.864-0.37c-0.225-0.248-0.336-0.609-0.336-1.094v-6.646
				c0-0.434,0.102-0.768,0.302-0.995c0.203-0.221,0.469-0.337,0.795-0.337c0.318,0,0.585,0.105,0.795,0.317
				c0.215,0.213,0.319,0.509,0.319,0.882v0.221c0.405-0.481,0.835-0.836,1.294-1.065c0.461-0.222,0.971-0.338,1.53-0.338
				c0.586,0,1.088,0.116,1.505,0.348c0.421,0.233,0.77,0.585,1.04,1.056c0.392-0.475,0.813-0.83,1.26-1.06
				c0.447-0.227,0.944-0.344,1.491-0.344c0.633,0,1.181,0.126,1.639,0.371c0.461,0.257,0.801,0.61,1.027,1.072
				c0.203,0.424,0.301,1.084,0.301,1.985v4.532c0,0.488-0.115,0.855-0.335,1.1c-0.216,0.245-0.507,0.364-0.874,0.364
				c-0.348,0-0.639-0.123-0.861-0.37c-0.228-0.248-0.337-0.609-0.337-1.094v-3.904c0-0.495-0.019-0.898-0.062-1.202
				c-0.047-0.297-0.158-0.552-0.347-0.753c-0.186-0.204-0.472-0.304-0.852-0.304c-0.307,0-0.594,0.09-0.871,0.271
				c-0.272,0.179-0.489,0.425-0.645,0.731C249.072,770.529,248.989,771.219,248.989,772.214z"/>
			<path style="fill-rule:evenodd;clip-rule:evenodd;fill:#FFFFFF;" d="M137.36,761.334c-0.047-0.151-0.096-0.298-0.144-0.446
				c0.778-0.071,1.303-1.008,0.921-1.7c-0.186-0.414-0.612-0.637-1.04-0.646h-0.05c-0.361,0.006-0.717,0.164-0.925,0.485
				c-0.497,0.631-0.111,1.633,0.652,1.838c0.046,0.156,0.091,0.317,0.14,0.482c-1.17,0.076-2.363,0.338-3.344,1.006
				c0.101,0.277,0.203,0.565,0.302,0.854c1.98-0.87,4.2-0.683,6.287-0.474c0.069-0.274,0.138-0.552,0.21-0.827
				C139.423,761.48,138.387,761.325,137.36,761.334z"/>
			<path style="fill-rule:evenodd;clip-rule:evenodd;fill:#FFFFFF;" d="M149.132,764.527c-0.311,0.161-0.372,0.538-0.352,0.853
				c-0.351,0.34-0.185,0.85-0.222,1.274c-0.079,0.237-0.365,0.266-0.563,0.353c-0.273-0.414-0.563-0.815-0.932-1.156l0.004-0.02
				c-0.4-0.374-0.831-0.715-1.287-1.011c-0.365,0.393-0.749,0.778-1.1,1.186c0.696,0.767,1.34,1.589,1.91,2.454
				c0.394,0.661,0.708,1.362,0.979,2.079c0.589-0.301,1.17-0.615,1.761-0.928c-0.312-0.715-0.665-1.418-1.044-2.107
				c0.262-0.139,0.611-0.274,0.651-0.615c0.03-0.377-0.054-0.783,0.171-1.113c0.455,0.298,1.146-0.036,1.154-0.591
				C150.323,764.615,149.602,764.206,149.132,764.527z"/>
			<path style="fill-rule:evenodd;clip-rule:evenodd;fill:#FFFFFF;" d="M144.517,769.29c-0.139,0.956-1.049,1.766-2.026,1.707v3.835
				c1.794-0.482,3.526-1.189,5.129-2.13c0,0-0.338-1.867-1.668-3.903c-0.767-1.272-1.598-2.537-2.726-3.518
				c-0.233-0.205-0.479-0.398-0.735-0.578v2.218c0.246,0.005,0.492,0.052,0.729,0.108
				C144.115,767.346,144.702,768.357,144.517,769.29z M142.491,770.997h-0.007c-0.566,0.046-1.111-0.222-1.496-0.621
				c-0.276-0.343-0.504-0.737-0.542-1.187c-0.134-0.972,0.552-1.976,1.503-2.203c0.178-0.053,0.359-0.07,0.541-0.066v-2.218
				c-1.176-0.82-2.578-1.339-4.018-1.332c-1.776-0.021-3.57,0.203-5.263,0.75v2.107c0.313,0.001,0.626,0.045,0.928,0.129
				c0.342,0.087,0.656,0.245,0.949,0.443c0.605,0.426,1.058,1.058,1.259,1.772c0.282,0.918,0.102,1.946-0.432,2.738
				c-0.386,0.56-0.937,0.991-1.57,1.236c-0.362,0.135-0.748,0.201-1.135,0.201v2.845l0.09,0.004c2.077,0.063,4.17,0.115,6.232-0.177
				c0.997-0.13,1.986-0.326,2.959-0.588V770.997z M133.21,764.12v2.107c-0.535-0.002-1.068,0.121-1.541,0.377
				c-0.982,0.523-1.674,1.566-1.721,2.685c-0.065,0.896,0.291,1.787,0.89,2.447c0.599,0.661,1.485,1.01,2.371,1.011v2.845
				c-2.075-0.107-4.122-0.557-6.134-1.06c-0.369-1.864-0.378-3.883,0.439-5.635c0.848-1.95,2.522-3.459,4.45-4.309
				C132.372,764.413,132.788,764.257,133.21,764.12z"/>
			<path style="fill-rule:evenodd;clip-rule:evenodd;fill:#FFFFFF;" d="M127.54,765.958c-0.83,0.501-1.511,1.206-2.08,1.984
				c-0.166-0.31-0.217-0.677-0.434-0.952c-0.123-0.166-0.345-0.099-0.518-0.101c-0.221,0.023-0.434-0.036-0.641-0.1
				c0.242-0.342,0.179-0.865-0.194-1.088c-0.396-0.286-1.011-0.038-1.116,0.436c-0.167,0.517,0.384,1.036,0.892,0.9
				c0.269,0.4,0.756,0.334,1.172,0.35c0.186,0.322,0.329,0.679,0.567,0.972c-0.445,0.877-0.696,1.858-0.715,2.843
				c0.571,0.237,1.14,0.483,1.715,0.721c0.028-0.624,0.099-1.239,0.194-1.847c0.192-1.334,0.963-2.493,1.877-3.447
				C128.03,766.39,127.777,766.183,127.54,765.958z"/>
			<path style="fill-rule:evenodd;clip-rule:evenodd;fill:#FFFFFF;" d="M140.888,776.004c-2.104,0.459-4.275,0.594-6.426,0.5
				c-1.454-0.074-2.908-0.209-4.331-0.523c-1.006-0.204-1.992-0.496-2.984-0.78c0.159,1.266,0.67,2.477,1.401,3.521
				c0.862,1.213,2.015,2.325,3.45,2.774c1.05,0.281,2.291,0.639,4.336,0.648h0.208l0.212-0.003c1.903-0.033,3.772-0.274,5.442-0.985
				c1.076-0.462,2.086-1.094,2.954-1.883c0.748-0.707,1.336-1.587,1.741-2.532c0.392-0.893,0.744-2.5,0.707-3.32
				C145.537,774.591,143.233,775.61,140.888,776.004z"/>
		</g>
	</g>
	<g>
		<path style="fill:#B3D6F5;" d="M222.482,428.2c-0.497-0.571-1.431,0.017-1.091,0.73c0.027,0.052,0.055,0.095,0.093,0.139
			l0.869,0.999c0.497,0.571,1.43-0.017,1.091-0.731c-0.026-0.051-0.055-0.095-0.093-0.138L222.482,428.2L222.482,428.2z
			 M253.316,465.63c0.497,0.571,1.431-0.017,1.091-0.732c-0.027-0.051-0.054-0.095-0.093-0.139l-0.536-0.615
			c-0.497-0.571-1.431,0.017-1.091,0.731c0.026,0.051,0.055,0.095,0.093,0.139L253.316,465.63L253.316,465.63z M248.433,460.021
			c0.497,0.571,1.431-0.017,1.092-0.73c-0.027-0.052-0.055-0.095-0.093-0.139l-0.869-0.998c-0.497-0.571-1.431,0.017-1.091,0.73
			c0.026,0.052,0.054,0.095,0.093,0.139L248.433,460.021L248.433,460.021z M243.217,454.031c0.497,0.571,1.431-0.017,1.091-0.731
			c-0.026-0.051-0.054-0.094-0.093-0.138l-0.87-0.999c-0.497-0.571-1.431,0.017-1.091,0.731c0.027,0.051,0.055,0.095,0.093,0.139
			L243.217,454.031L243.217,454.031z M238.001,448.04c0.497,0.571,1.431-0.017,1.092-0.73c-0.027-0.052-0.055-0.095-0.093-0.139
			l-0.869-0.998c-0.497-0.571-1.43,0.017-1.091,0.73c0.027,0.052,0.055,0.095,0.093,0.139L238.001,448.04L238.001,448.04z
			 M232.785,442.05c0.498,0.571,1.431-0.017,1.092-0.731c-0.027-0.051-0.055-0.094-0.093-0.138l-0.869-0.999
			c-0.498-0.571-1.431,0.017-1.091,0.732c0.026,0.051,0.055,0.095,0.093,0.138L232.785,442.05L232.785,442.05z M227.569,436.059
			c0.497,0.571,1.431-0.017,1.092-0.73c-0.027-0.052-0.055-0.095-0.093-0.139l-0.869-0.998c-0.498-0.571-1.431,0.017-1.091,0.73
			c0.026,0.052,0.054,0.095,0.092,0.139L227.569,436.059z"/>
		<g>
			<polygon style="fill:#B3D6F5;" points="213.836,427.823 211.369,416.443 222.301,420.453 			"/>
			<polygon style="fill:#B3D6F5;" points="253.498,473.377 264.43,477.386 261.962,466.006 			"/>
		</g>
	</g>
	<g>
		<path style="fill:#B3D6F5;" d="M332.097,133.273c-0.571,0.498,0.017,1.431,0.731,1.091c0.051-0.026,0.094-0.054,0.139-0.093
			l0.999-0.869c0.571-0.497-0.017-1.431-0.731-1.092c-0.051,0.027-0.094,0.055-0.138,0.093L332.097,133.273L332.097,133.273z
			 M369.526,102.44c0.572-0.497-0.016-1.431-0.731-1.091c-0.051,0.026-0.094,0.054-0.138,0.093l-0.615,0.536
			c-0.571,0.498,0.016,1.431,0.73,1.092c0.051-0.026,0.095-0.055,0.139-0.093L369.526,102.44L369.526,102.44z M363.918,107.323
			c0.571-0.497-0.017-1.431-0.731-1.092c-0.051,0.026-0.094,0.054-0.139,0.093l-0.998,0.87c-0.571,0.497,0.016,1.431,0.73,1.091
			c0.051-0.026,0.095-0.055,0.139-0.093L363.918,107.323L363.918,107.323z M357.928,112.539c0.571-0.497-0.017-1.431-0.731-1.092
			c-0.051,0.027-0.094,0.055-0.138,0.093l-0.999,0.869c-0.571,0.498,0.017,1.431,0.731,1.091c0.051-0.026,0.095-0.054,0.139-0.093
			L357.928,112.539L357.928,112.539z M351.937,117.755c0.571-0.497-0.017-1.431-0.731-1.092c-0.051,0.027-0.094,0.055-0.138,0.093
			l-0.998,0.869c-0.571,0.497,0.016,1.431,0.73,1.092c0.051-0.027,0.095-0.055,0.139-0.093L351.937,117.755L351.937,117.755z
			 M345.946,122.971c0.571-0.497-0.017-1.431-0.732-1.091c-0.051,0.027-0.094,0.055-0.138,0.093l-0.998,0.869
			c-0.571,0.497,0.016,1.431,0.73,1.091c0.051-0.026,0.095-0.055,0.139-0.093L345.946,122.971L345.946,122.971z M339.956,128.187
			c0.571-0.498-0.017-1.431-0.732-1.092c-0.051,0.027-0.094,0.055-0.138,0.093l-0.998,0.869c-0.571,0.497,0.017,1.431,0.731,1.091
			c0.051-0.026,0.094-0.054,0.139-0.093L339.956,128.187z"/>
		<g>
			<polygon style="fill:#B3D6F5;" points="331.72,141.92 320.34,144.387 324.35,133.455 			"/>
			<polygon style="fill:#B3D6F5;" points="377.273,102.259 381.282,91.327 369.902,93.793 			"/>
		</g>
	</g>
	<path style="fill-rule:evenodd;clip-rule:evenodd;fill:#71A9D9;" d="M250.518,56.435c4.356,0.892,7.614,4.208,7.614,8.133l0,0
		c0,4.034-3.377,8.202-7.982,8.202h-20.241c-4.929,0-8.728-3.949-8.728-8.202l0,0c0-3.925,3.259-7.241,7.614-8.132
		c-0.002-0.079-0.004-0.158-0.004-0.237c0-5.042,4.865-9.129,10.865-9.129c6,0,10.865,4.087,10.865,9.129
		C250.522,56.278,250.52,56.357,250.518,56.435z"/>
	<g>
		<path style="fill:#B3D6F5;" d="M588.05,484.435c-0.497-0.571-1.431,0.017-1.092,0.732c0.026,0.051,0.055,0.094,0.093,0.138
			l0.869,0.999c0.498,0.571,1.431-0.017,1.092-0.732c-0.026-0.051-0.055-0.094-0.093-0.138L588.05,484.435L588.05,484.435z
			 M618.883,521.865c0.497,0.571,1.431-0.017,1.091-0.731c-0.026-0.051-0.054-0.095-0.093-0.138l-0.535-0.616
			c-0.498-0.571-1.431,0.017-1.092,0.731c0.026,0.051,0.055,0.095,0.093,0.139L618.883,521.865L618.883,521.865z M614,516.257
			c0.497,0.571,1.431-0.017,1.092-0.73c-0.026-0.051-0.055-0.095-0.093-0.139l-0.87-0.998c-0.497-0.571-1.431,0.017-1.091,0.731
			c0.026,0.052,0.055,0.095,0.093,0.139L614,516.257L614,516.257z M608.784,510.267c0.497,0.571,1.431-0.017,1.092-0.732
			c-0.027-0.051-0.055-0.094-0.093-0.138l-0.87-0.999c-0.497-0.571-1.431,0.017-1.091,0.732c0.026,0.051,0.054,0.095,0.093,0.139
			L608.784,510.267L608.784,510.267z M603.568,504.275c0.497,0.571,1.431-0.016,1.092-0.73c-0.027-0.052-0.055-0.095-0.094-0.139
			l-0.869-0.998c-0.497-0.571-1.431,0.017-1.092,0.73c0.027,0.052,0.056,0.095,0.094,0.139L603.568,504.275L603.568,504.275z
			 M598.352,498.285c0.497,0.571,1.431-0.017,1.092-0.731c-0.027-0.051-0.056-0.094-0.094-0.138l-0.869-0.999
			c-0.497-0.571-1.431,0.017-1.092,0.731c0.027,0.051,0.055,0.095,0.093,0.139L598.352,498.285L598.352,498.285z M593.137,492.294
			c0.497,0.571,1.43-0.017,1.091-0.73c-0.026-0.051-0.055-0.095-0.093-0.139l-0.869-0.998c-0.497-0.571-1.431,0.017-1.092,0.73
			c0.026,0.052,0.055,0.095,0.093,0.139L593.137,492.294z"/>
		<g>
			<polygon style="fill:#B3D6F5;" points="579.403,484.059 576.936,472.679 587.868,476.688 			"/>
			<polygon style="fill:#B3D6F5;" points="619.065,529.612 629.996,533.621 627.529,522.241 			"/>
		</g>
	</g>
	<g>
		<path style="fill:#71A9D9;" d="M340.839,737.531c0.531,0.001,1.065,0.03,1.6,0.092l0.724-2.382l5.023,1.526l-0.724,2.382
			c1.822,0.942,3.381,2.244,4.613,3.789l2.195-1.171l2.472,4.632l-2.195,1.171c0.598,1.884,0.811,3.902,0.58,5.941l2.381,0.724
			l-1.527,5.023l-2.381-0.724c-0.944,1.822-2.245,3.381-3.79,4.613l1.171,2.195l-4.631,2.472l-1.171-2.195
			c-1.389,0.44-2.852,0.673-4.341,0.672v-3.761c4.553,0.001,8.765-2.949,10.158-7.531c1.706-5.61-1.461-11.541-7.07-13.247
			c-1.028-0.311-2.066-0.461-3.088-0.461V737.531z M331.866,740.676l-1.172-2.195l4.631-2.472l1.173,2.194
			c1.388-0.44,2.851-0.673,4.341-0.672v3.761c-4.554-0.002-8.765,2.949-10.158,7.531c-1.706,5.61,1.459,11.541,7.07,13.246l0,0
			c1.028,0.313,2.067,0.461,3.088,0.462v3.761c-0.531,0-1.066-0.03-1.601-0.091l-0.724,2.382l-5.023-1.527l0.724-2.382
			c-1.823-0.942-3.38-2.244-4.613-3.789l-2.196,1.171l-2.471-4.631l2.195-1.173c-0.598-1.883-0.812-3.901-0.581-5.94l-2.381-0.724
			l1.527-5.024l2.381,0.725C329.02,743.466,330.321,741.907,331.866,740.676z"/>
		<path style="fill:#71A9D9;" d="M353.842,716.421c0.371,0,0.744,0.021,1.118,0.063l0.506-1.664l3.509,1.066l-0.506,1.664
			c1.273,0.659,2.362,1.568,3.223,2.647l1.533-0.818l1.728,3.236l-1.534,0.818c0.418,1.316,0.567,2.727,0.406,4.151l1.664,0.506
			l-1.067,3.509l-1.663-0.506c-0.66,1.273-1.568,2.362-2.647,3.224l0.818,1.534l-3.236,1.727l-0.818-1.534
			c-0.97,0.309-1.992,0.47-3.033,0.47v-2.628c3.181,0.001,6.124-2.061,7.097-5.262c1.191-3.92-1.021-8.064-4.94-9.255
			c-0.718-0.218-1.444-0.322-2.157-0.322V716.421z M347.573,718.617l-0.818-1.533l3.235-1.728l0.82,1.533
			c0.97-0.308,1.992-0.47,3.033-0.469v2.627c-3.181-0.001-6.124,2.061-7.097,5.262c-1.191,3.92,1.02,8.063,4.94,9.255l0,0
			c0.718,0.219,1.444,0.322,2.158,0.322v2.628c-0.371-0.001-0.744-0.021-1.118-0.064l-0.506,1.664l-3.509-1.067l0.505-1.664
			c-1.273-0.658-2.361-1.567-3.222-2.646l-1.535,0.817l-1.727-3.235l1.534-0.819c-0.418-1.315-0.567-2.726-0.406-4.15l-1.664-0.506
			l1.067-3.51l1.664,0.506C345.585,720.567,346.494,719.478,347.573,718.617z"/>
	</g>
	<g>
		<path style="fill:#B3D6F5;" d="M412.191,705.376c-0.571,0.497,0.017,1.431,0.73,1.092c0.052-0.027,0.095-0.055,0.139-0.094
			l0.998-0.869c0.571-0.497-0.016-1.431-0.73-1.091c-0.051,0.026-0.095,0.055-0.139,0.093L412.191,705.376L412.191,705.376z
			 M449.62,674.543c0.571-0.497-0.017-1.431-0.73-1.092c-0.052,0.027-0.095,0.055-0.139,0.093l-0.615,0.536
			c-0.571,0.497,0.017,1.431,0.73,1.092c0.052-0.026,0.095-0.055,0.139-0.093L449.62,674.543L449.62,674.543z M444.013,679.426
			c0.571-0.498-0.017-1.431-0.731-1.092c-0.051,0.026-0.094,0.055-0.138,0.093l-0.999,0.869c-0.571,0.497,0.017,1.431,0.732,1.092
			c0.051-0.026,0.095-0.055,0.139-0.093L444.013,679.426L444.013,679.426z M438.021,684.642c0.571-0.498-0.016-1.431-0.73-1.092
			c-0.051,0.026-0.094,0.055-0.139,0.093l-0.998,0.869c-0.571,0.498,0.017,1.431,0.73,1.092c0.052-0.026,0.095-0.055,0.139-0.093
			L438.021,684.642L438.021,684.642z M432.031,689.857c0.571-0.497-0.017-1.431-0.732-1.092c-0.051,0.026-0.094,0.055-0.138,0.093
			l-0.999,0.869c-0.571,0.498,0.017,1.431,0.731,1.092c0.051-0.026,0.095-0.055,0.139-0.093L432.031,689.857L432.031,689.857z
			 M426.04,695.073c0.571-0.497-0.016-1.431-0.73-1.092c-0.051,0.027-0.095,0.055-0.139,0.094l-0.998,0.869
			c-0.571,0.497,0.017,1.431,0.73,1.091c0.052-0.026,0.095-0.055,0.139-0.093L426.04,695.073L426.04,695.073z M420.05,700.289
			c0.571-0.497-0.017-1.431-0.731-1.092c-0.051,0.027-0.094,0.055-0.138,0.094l-0.999,0.869c-0.571,0.497,0.017,1.431,0.732,1.091
			c0.051-0.026,0.094-0.054,0.139-0.093L420.05,700.289z"/>
		<g>
			<polygon style="fill:#B3D6F5;" points="411.814,714.022 400.435,716.489 404.444,705.558 			"/>
			<polygon style="fill:#B3D6F5;" points="457.367,674.361 461.377,663.429 449.997,665.896 			"/>
		</g>
	</g>
</g>
</svg>
